<svg class="main-svg" xmlns="http://www.w3.org/2000/svg" xmlns:xlink="http://www.w3.org/1999/xlink" width="1125" height="750" style="" viewBox="0 0 750 500"><rect x="0" y="0" width="750" height="500" style="fill: rgb(0, 0, 0); fill-opacity: 0;"/><defs id="defs-236200"><g class="clips"><clipPath id="clip236200xyplot" class="plotclip"><rect width="700" height="380"/></clipPath><clipPath class="axesclip" id="clip236200x"><rect x="50" y="0" width="700" height="500"/></clipPath><clipPath class="axesclip" id="clip236200y"><rect x="0" y="70" width="750" height="380"/></clipPath><clipPath class="axesclip" id="clip236200xy"><rect x="50" y="70" width="700" height="380"/></clipPath></g><g class="gradients"/></defs><g class="bglayer"><rect class="bg" x="50" y="70" width="700" height="380" style="fill: rgb(0, 0, 0); fill-opacity: 0; stroke-width: 0;"/></g><g class="layer-below"><g class="imagelayer"/><g class="shapelayer"/></g><g class="cartesianlayer"><g class="subplot xy"><g class="layer-subplot"><g class="shapelayer"/><g class="imagelayer"/></g><g class="gridlayer"><g class="x"><path class="xgrid crisp" transform="translate(147.67000000000002,0)" d="M0,70v380" style="stroke: rgb(255, 255, 255); stroke-opacity: 1; stroke-width: 1px;"/><path class="xgrid crisp" transform="translate(261.63,0)" d="M0,70v380" style="stroke: rgb(255, 255, 255); stroke-opacity: 1; stroke-width: 1px;"/><path class="xgrid crisp" transform="translate(375.58,0)" d="M0,70v380" style="stroke: rgb(255, 255, 255); stroke-opacity: 1; stroke-width: 1px;"/><path class="xgrid crisp" transform="translate(489.53,0)" d="M0,70v380" style="stroke: rgb(255, 255, 255); stroke-opacity: 1; stroke-width: 1px;"/><path class="xgrid crisp" transform="translate(603.49,0)" d="M0,70v380" style="stroke: rgb(255, 255, 255); stroke-opacity: 1; stroke-width: 1px;"/><path class="xgrid crisp" transform="translate(717.44,0)" d="M0,70v380" style="stroke: rgb(255, 255, 255); stroke-opacity: 1; stroke-width: 1px;"/></g><g class="y"/></g><g class="zerolinelayer"/><path class="xlines-below"/><path class="ylines-below"/><g class="overlines-below"/><g class="xaxislayer-below"/><g class="yaxislayer-below"/><g class="overaxes-below"/><g class="plot" transform="translate(50, 70)" clip-path="url('#clip236200xyplot')"><g class="scatterlayer mlayer"><g class="trace scatter trace5195a0" style="stroke-miterlimit: 2;"><g class="fills"><g><path class="js-fill" d="M561.63,380L-1106.98,380L-1106.98,362.77L-1074.42,364.65L-1066.28,364.73L-1017.44,373.11L-1009.3,373.11L-927.91,376.48L-919.77,376.4L-716.28,377.89L-708.14,377.73L-561.63,375.46L-553.49,375.46L-317.44,362.3L-309.3,360.35L-260.47,354.32L-252.33,356.04L-195.35,360.03L-187.21,358.94L-162.79,356.27L-154.65,355.88L-138.37,350.01L-130.23,349.54L-89.53,352.2L-81.4,354.24L-48.84,355.73L-40.7,355.8L-24.42,356.27L-16.28,356.2L0,352.52L8.14,350.09L16.28,350.17L24.42,346.57L32.56,340.61L40.7,335.84L48.84,330.28L56.98,323.15L65.12,319.08L73.26,318.14L81.4,306.4L89.53,301.93L97.67,291.99L105.81,284.63L113.95,272.18L122.09,267.01L130.23,266.07L138.37,246.96L154.65,203.82L162.79,172.73L170.93,136.4L179.07,121.6L187.21,120.12L195.35,85.04L203.49,69.06L211.63,51.05L219.77,44.48L227.91,34.61L236.05,32.65L244.19,32.57L252.33,21.3L260.47,0.08L268.6,0L276.74,2.74L284.88,19.65L293.02,27.09L301.16,27.33L309.3,46.43L317.44,67.57L325.58,124.27L333.72,130.29L341.86,142.04L350,147.44L358.14,149.17L366.28,170.54L374.42,185.97L382.56,161.07L390.7,183.07L398.84,199.91L406.98,205.15L415.12,205.31L423.26,218.78L431.4,232.56L439.53,239.45L447.67,242.27L455.81,248.06L463.95,250.72L472.09,250.49L480.23,252.6L488.37,257.46L496.51,257.07L504.65,258.24L520.93,248.69L529.07,247.83L537.21,245.32L545.35,238.82L553.49,234.44L561.63,228.25" style="fill: rgb(8, 115, 191); fill-opacity: 0.2; stroke-width: 0;"/></g></g><g class="errorbars"/><g class="lines"><path class="js-line" d="M-1106.98,362.77L-1074.42,364.65L-1066.28,364.73L-1017.44,373.11L-1009.3,373.11L-927.91,376.48L-919.77,376.4L-716.28,377.89L-708.14,377.73L-561.63,375.46L-553.49,375.46L-317.44,362.3L-309.3,360.35L-260.47,354.32L-252.33,356.04L-195.35,360.03L-187.21,358.94L-162.79,356.27L-154.65,355.88L-138.37,350.01L-130.23,349.54L-89.53,352.2L-81.4,354.24L-48.84,355.73L-40.7,355.8L-24.42,356.27L-16.28,356.2L0,352.52L8.14,350.09L16.28,350.17L24.42,346.57L32.56,340.61L40.7,335.84L48.84,330.28L56.98,323.15L65.12,319.08L73.26,318.14L81.4,306.4L89.53,301.93L97.67,291.99L105.81,284.63L113.95,272.18L122.09,267.01L130.23,266.07L138.37,246.96L154.65,203.82L162.79,172.73L170.93,136.4L179.07,121.6L187.21,120.12L195.35,85.04L203.49,69.06L211.63,51.05L219.77,44.48L227.91,34.61L236.05,32.65L244.19,32.57L252.33,21.3L260.47,0.08L268.6,0L276.74,2.74L284.88,19.65L293.02,27.09L301.16,27.33L309.3,46.43L317.44,67.57L325.58,124.27L333.72,130.29L341.86,142.04L350,147.44L358.14,149.17L366.28,170.54L374.42,185.97L382.56,161.07L390.7,183.07L398.84,199.91L406.98,205.15L415.12,205.31L423.26,218.78L431.4,232.56L439.53,239.45L447.67,242.27L455.81,248.06L463.95,250.72L472.09,250.49L480.23,252.6L488.37,257.46L496.51,257.07L504.65,258.24L520.93,248.69L529.07,247.83L537.21,245.32L545.35,238.82L553.49,234.44L561.63,228.25" style="vector-effect: non-scaling-stroke; fill: none; stroke: rgb(8, 115, 191); stroke-opacity: 1; stroke-width: 0.5px; opacity: 1;"/></g><g class="points"/><g class="text"/></g><g class="trace scatter trace6c9cae" style="stroke-miterlimit: 2;"><g class="fills"><g><path class="js-fill" d="M643.02,380L561.63,380L561.63,228.25L569.77,225.51L577.91,221.36L586.05,219.95L594.19,210.08L602.33,203.04L610.47,197.01L626.74,191.29L634.88,186.44L643.02,187.22" style="fill: rgb(8, 115, 191); fill-opacity: 0.4; stroke-width: 0;"/></g></g><g class="errorbars"/><g class="lines"><path class="js-line" d="M561.63,228.25L569.77,225.51L577.91,221.36L586.05,219.95L594.19,210.08L602.33,203.04L610.47,197.01L626.74,191.29L634.88,186.44L643.02,187.22" style="vector-effect: non-scaling-stroke; fill: none; stroke: rgb(8, 115, 191); stroke-opacity: 1; stroke-width: 2px; opacity: 1;"/></g><g class="points"/><g class="text"/></g><g class="trace scatter trace4a912b" style="stroke-miterlimit: 2; opacity: 1;"><g class="fills"/><g class="errorbars"/><g class="lines"/><g class="points"><path class="point" transform="translate(643.02,187.22)" d="M15,0A15,15 0 1,1 0,-15A15,15 0 0,1 15,0Z" style="opacity: 1; stroke-width: 0px; fill: rgb(8, 115, 191); fill-opacity: 1;"/></g><g class="text"/></g></g></g><g class="overplot"/><path class="xlines-above crisp" style="fill: none; stroke-width: 1px; stroke: rgb(0, 0, 0); stroke-opacity: 0;" d=""/><path class="ylines-above crisp" style="fill: none;" d="M0,0"/><g class="overlines-above"/><g class="xaxislayer-above"><path class="xtick ticks crisp" d="M0,450v-5" transform="translate(147.67000000000002,0)" style="stroke: rgb(68, 68, 68); stroke-opacity: 1; stroke-width: 1px;"/><path class="xtick ticks crisp" d="M0,450v-5" transform="translate(261.63,0)" style="stroke: rgb(68, 68, 68); stroke-opacity: 1; stroke-width: 1px;"/><path class="xtick ticks crisp" d="M0,450v-5" transform="translate(375.58,0)" style="stroke: rgb(68, 68, 68); stroke-opacity: 1; stroke-width: 1px;"/><path class="xtick ticks crisp" d="M0,450v-5" transform="translate(489.53,0)" style="stroke: rgb(68, 68, 68); stroke-opacity: 1; stroke-width: 1px;"/><path class="xtick ticks crisp" d="M0,450v-5" transform="translate(603.49,0)" style="stroke: rgb(68, 68, 68); stroke-opacity: 1; stroke-width: 1px;"/><path class="xtick ticks crisp" d="M0,450v-5" transform="translate(717.44,0)" style="stroke: rgb(68, 68, 68); stroke-opacity: 1; stroke-width: 1px;"/><g class="xtick"><text text-anchor="middle" x="0" y="469" transform="translate(147.67000000000002,0)" style="font-family: 'Open Sans', verdana, arial, sans-serif; font-size: 18px; fill: rgb(42, 63, 95); fill-opacity: 1; white-space: pre;">11/10</text></g><g class="xtick"><text text-anchor="middle" x="0" y="469" transform="translate(261.63,0)" style="font-family: 'Open Sans', verdana, arial, sans-serif; font-size: 18px; fill: rgb(42, 63, 95); fill-opacity: 1; white-space: pre;">25/10</text></g><g class="xtick"><text text-anchor="middle" x="0" y="469" transform="translate(375.58,0)" style="font-family: 'Open Sans', verdana, arial, sans-serif; font-size: 18px; fill: rgb(42, 63, 95); fill-opacity: 1; white-space: pre;">08/11</text></g><g class="xtick"><text text-anchor="middle" x="0" y="469" transform="translate(489.53,0)" style="font-family: 'Open Sans', verdana, arial, sans-serif; font-size: 18px; fill: rgb(42, 63, 95); fill-opacity: 1; white-space: pre;">22/11</text></g><g class="xtick"><text text-anchor="middle" x="0" y="469" transform="translate(603.49,0)" style="font-family: 'Open Sans', verdana, arial, sans-serif; font-size: 18px; fill: rgb(42, 63, 95); fill-opacity: 1; white-space: pre;">06/12</text></g><g class="xtick"><text text-anchor="middle" x="0" y="469" transform="translate(717.44,0)" style="font-family: 'Open Sans', verdana, arial, sans-serif; font-size: 18px; fill: rgb(42, 63, 95); fill-opacity: 1; white-space: pre;">20/12</text></g></g><g class="yaxislayer-above"/><g class="overaxes-above"/></g></g><g class="polarlayer"/><g class="ternarylayer"/><g class="geolayer"/><g class="funnelarealayer"/><g class="pielayer"/><g class="treemaplayer"/><g class="sunburstlayer"/><g class="glimages"/><defs id="topdefs-236200"><g class="clips"/></defs><g class="layer-above"><g class="imagelayer"/><g class="shapelayer"><path data-index="0" fill-rule="evenodd" d="M-4524.42,409.44L1425.58,409.44" clip-path="url('#clip236200xy')" style="opacity: 1; stroke: rgb(255, 0, 0); stroke-opacity: 1; fill: rgb(0, 0, 0); fill-opacity: 0; stroke-dasharray: 3px, 3px; stroke-width: 1.5px;"/></g></g><g class="infolayer"><g class="g-gtitle"><text class="gtitle" x="375" y="25" text-anchor="middle" dy="0.7em" style="font-family: 'Open Sans', verdana, arial, sans-serif; font-size: 50px; fill: rgb(42, 63, 95); opacity: 1; font-weight: normal; white-space: pre;"><tspan style="font-weight:bold">Moselle (57)</tspan></text></g><g class="g-xtitle"/><g class="annotation" data-index="0" style="opacity: 1;"><g class="annotation-text-g" transform="rotate(0,651.02,197.22000000000003)"><g class="cursor-pointer" transform="translate(593, 161)"><rect class="bg" x="0.5" y="0.5" width="115" height="71" style="stroke-width: 1px; stroke: rgb(0, 0, 0); stroke-opacity: 0; fill: rgb(255, 255, 255); fill-opacity: 0.6;"/><text class="annotation-text" text-anchor="middle" x="57.8125" y="55.5" style="font-family: 'Open Sans', verdana, arial, sans-serif; font-size: 50px; fill: rgb(8, 115, 191); fill-opacity: 1; white-space: pre;"> <tspan style="font-weight:bold">237 </tspan></text></g></g><g class="annotation-arrow-g" style="opacity: 1;"><path d="M679.42,232.72000000000003L691.02,247.22000000000003" style="stroke-width: 1px; stroke: rgb(8, 115, 191); stroke-opacity: 1; stroke-dasharray: 0px, 0px, 18.5691px, 18.5691px;"/></g></g></g></svg>