<svg class="main-svg" xmlns="http://www.w3.org/2000/svg" xmlns:xlink="http://www.w3.org/1999/xlink" width="1125" height="750" style="" viewBox="0 0 750 500"><rect x="0" y="0" width="750" height="500" style="fill: rgb(0, 0, 0); fill-opacity: 0;"/><defs id="defs-1a96a1"><g class="clips"><clipPath id="clip1a96a1xyplot" class="plotclip"><rect width="700" height="380"/></clipPath><clipPath class="axesclip" id="clip1a96a1x"><rect x="50" y="0" width="700" height="500"/></clipPath><clipPath class="axesclip" id="clip1a96a1y"><rect x="0" y="70" width="750" height="380"/></clipPath><clipPath class="axesclip" id="clip1a96a1xy"><rect x="50" y="70" width="700" height="380"/></clipPath></g><g class="gradients"/></defs><g class="bglayer"><rect class="bg" x="50" y="70" width="700" height="380" style="fill: rgb(0, 0, 0); fill-opacity: 0; stroke-width: 0;"/></g><g class="layer-below"><g class="imagelayer"/><g class="shapelayer"/></g><g class="cartesianlayer"><g class="subplot xy"><g class="layer-subplot"><g class="shapelayer"/><g class="imagelayer"/></g><g class="gridlayer"><g class="x"><path class="xgrid crisp" transform="translate(54.62,0)" d="M0,70v380" style="stroke: rgb(255, 255, 255); stroke-opacity: 1; stroke-width: 1px;"/><path class="xgrid crisp" transform="translate(126.24,0)" d="M0,70v380" style="stroke: rgb(255, 255, 255); stroke-opacity: 1; stroke-width: 1px;"/><path class="xgrid crisp" transform="translate(195.54,0)" d="M0,70v380" style="stroke: rgb(255, 255, 255); stroke-opacity: 1; stroke-width: 1px;"/><path class="xgrid crisp" transform="translate(267.15999999999997,0)" d="M0,70v380" style="stroke: rgb(255, 255, 255); stroke-opacity: 1; stroke-width: 1px;"/><path class="xgrid crisp" transform="translate(338.78,0)" d="M0,70v380" style="stroke: rgb(255, 255, 255); stroke-opacity: 1; stroke-width: 1px;"/><path class="xgrid crisp" transform="translate(403.47,0)" d="M0,70v380" style="stroke: rgb(255, 255, 255); stroke-opacity: 1; stroke-width: 1px;"/><path class="xgrid crisp" transform="translate(475.08,0)" d="M0,70v380" style="stroke: rgb(255, 255, 255); stroke-opacity: 1; stroke-width: 1px;"/><path class="xgrid crisp" transform="translate(544.39,0)" d="M0,70v380" style="stroke: rgb(255, 255, 255); stroke-opacity: 1; stroke-width: 1px;"/><path class="xgrid crisp" transform="translate(616.01,0)" d="M0,70v380" style="stroke: rgb(255, 255, 255); stroke-opacity: 1; stroke-width: 1px;"/><path class="xgrid crisp" transform="translate(685.31,0)" d="M0,70v380" style="stroke: rgb(255, 255, 255); stroke-opacity: 1; stroke-width: 1px;"/></g><g class="y"/></g><g class="zerolinelayer"/><path class="xlines-below"/><path class="ylines-below"/><g class="overlines-below"/><g class="xaxislayer-below"/><g class="yaxislayer-below"/><g class="overaxes-below"/><g class="plot" transform="translate(50, 70)" clip-path="url('#clip1a96a1xyplot')"><g class="scatterlayer mlayer"><g class="trace scatter trace450cfc" style="stroke-miterlimit: 2;"><g class="fills"><g><path class="js-fill" d="M660.73,380L-314.19,380L-314.19,377.4L-182.51,377.4L-180.2,377.11L-168.65,377.98L-166.34,378.56L-154.79,379.13L-152.48,379.13L-120.13,378.56L-117.82,378.27L-92.41,375.38L-90.1,373.08L-85.48,368.17L-83.17,361.25L-80.86,356.05L-78.55,355.47L-76.24,354.61L-73.93,351.72L-69.31,344.51L-67,344.51L-64.69,338.74L-62.38,337.3L-60.07,337.3L-57.76,327.49L-55.45,326.04L-53.14,326.62L-50.83,326.91L-48.51,332.68L-43.89,331.53L-41.58,338.74L-27.72,347.4L-25.41,353.17L-23.1,356.92L-20.79,358.36L-18.48,361.82L-16.17,360.96L-9.24,362.11L-6.93,359.51L-4.62,360.96L-2.31,359.23L0,360.67L2.31,360.09L4.62,358.65L6.93,355.47L9.24,355.47L11.55,349.13L16.17,332.1L18.48,330.08L20.79,331.24L23.1,314.5L25.41,297.77L27.72,292.29L30.03,281.9L32.34,275.55L36.96,271.51L39.27,266.03L41.58,263.72L43.89,250.45L46.2,250.45L48.51,240.06L50.83,238.33L53.14,238.62L55.45,219.86L57.76,207.46L60.07,206.88L62.38,203.42L64.69,202.26L67,200.24L69.31,199.95L71.62,208.32L73.93,215.82L76.24,225.92L80.86,253.91L83.17,258.82L85.48,259.68L87.79,274.97L90.1,286.8L92.41,304.69L94.72,300.08L97.03,306.14L101.65,309.89L103.96,323.74L106.27,333.26L108.58,331.24L110.89,346.53L113.2,349.99L117.82,349.99L120.13,352.88L122.44,358.94L124.75,359.23L129.37,363.55L131.68,363.55L133.99,363.55L136.3,367.02L143.23,365.28L145.54,365.57L147.85,366.73L150.17,367.02L152.48,368.75L154.79,367.88L157.1,367.3L159.41,367.59L166.34,367.02L168.65,365.86L170.96,363.84L173.27,365L175.58,365.57L177.89,364.71L180.2,362.4L182.51,361.25L184.82,357.49L187.13,357.78L189.44,353.45L191.75,351.15L194.06,354.03L196.37,350.86L198.68,350.86L200.99,349.99L203.3,345.66L205.61,344.51L207.92,341.05L210.23,341.91L212.54,344.8L214.85,345.09L217.16,341.62L219.47,343.07L221.78,342.49L224.09,345.09L226.4,340.76L228.71,341.34L231.02,340.47L233.33,341.34L235.64,337.87L237.95,338.16L242.57,333.26L244.88,333.83L247.19,334.7L249.5,326.91L251.82,328.64L254.13,328.93L261.06,315.95L263.37,313.93L267.99,302.67L270.3,300.94L272.61,304.4L274.92,301.81L277.23,305.56L279.54,307.87L284.16,310.75L286.47,309.6L288.78,306.71L291.09,305.56L293.4,302.67L295.71,301.81L300.33,315.37L302.64,312.19L304.95,312.19L307.26,317.1L309.57,318.83L311.88,319.41L314.19,318.54L316.5,316.81L318.81,321.72L321.12,318.25L323.43,313.35L325.74,310.75L328.05,309.89L330.36,300.36L332.67,295.46L334.98,287.09L337.29,288.25L339.6,288.25L341.91,289.98L344.22,290.55L346.53,293.44L348.84,287.09L351.16,294.31L353.47,290.84L355.78,285.65L358.09,283.34L362.71,283.34L365.02,289.98L367.33,283.63L369.64,286.51L371.95,291.71L374.26,292.57L376.57,293.73L378.88,298.34L381.19,299.5L383.5,307.29L385.81,312.19L388.12,312.48L390.43,315.08L392.74,315.08L395.05,313.35L397.36,314.5L399.67,316.23L401.98,314.21L404.29,317.39L406.6,317.39L408.91,316.52L411.22,319.7L413.53,318.83L415.84,314.21L418.15,315.08L420.46,311.04L422.77,310.75L425.08,311.91L427.39,321.72L429.7,315.66L432.01,313.93L434.32,314.5L436.63,315.37L438.94,311.04L441.25,309.02L443.56,294.31L445.87,297.19L448.18,298.06L450.5,296.61L452.81,293.15L455.12,297.48L457.43,295.75L462.05,300.94L464.36,301.52L466.67,302.96L468.98,306.42L471.29,307L473.6,310.17L475.91,305.85L478.22,307.29L480.53,308.15L482.84,312.77L485.15,314.21L487.46,316.81L492.08,313.93L494.39,314.21L496.7,317.97L499.01,314.79L501.32,321.14L503.63,321.43L505.94,323.74L508.25,339.89L510.56,348.55L512.87,352.01L515.18,360.09L517.49,363.55L524.42,363.26L526.73,362.11L531.35,361.25L533.66,359.8L535.97,361.25L538.28,359.8L540.59,365.28L542.9,365.28L545.21,367.3L547.52,366.44L549.83,367.88L552.15,367.88L554.46,369.32L556.77,368.17L559.08,371.34L561.39,372.21L563.7,373.08L566.01,373.08L568.32,372.21L570.63,372.21L572.94,371.34L575.25,371.63L577.56,372.79L579.87,373.08L582.18,374.23L584.49,373.94L586.8,373.94L589.11,374.81L598.35,375.67L600.66,377.11L612.21,377.4L614.52,377.98L623.76,378.27L626.07,378.85L628.38,379.13L630.69,377.98L633,376.25L635.31,376.25L637.62,374.23L639.93,373.36L644.55,366.73L646.86,346.24L649.17,341.91L651.49,340.18L656.11,282.19L658.42,279.01L660.73,248.14" style="fill: rgb(8, 115, 191); fill-opacity: 0.2; stroke-width: 0;"/></g></g><g class="errorbars"/><g class="lines"><path class="js-line" d="M-314.19,377.4L-182.51,377.4L-180.2,377.11L-168.65,377.98L-166.34,378.56L-154.79,379.13L-152.48,379.13L-120.13,378.56L-117.82,378.27L-92.41,375.38L-90.1,373.08L-85.48,368.17L-83.17,361.25L-80.86,356.05L-78.55,355.47L-76.24,354.61L-73.93,351.72L-69.31,344.51L-67,344.51L-64.69,338.74L-62.38,337.3L-60.07,337.3L-57.76,327.49L-55.45,326.04L-53.14,326.62L-50.83,326.91L-48.51,332.68L-43.89,331.53L-41.58,338.74L-27.72,347.4L-25.41,353.17L-23.1,356.92L-20.79,358.36L-18.48,361.82L-16.17,360.96L-9.24,362.11L-6.93,359.51L-4.62,360.96L-2.31,359.23L0,360.67L2.31,360.09L4.62,358.65L6.93,355.47L9.24,355.47L11.55,349.13L16.17,332.1L18.48,330.08L20.79,331.24L23.1,314.5L25.41,297.77L27.72,292.29L30.03,281.9L32.34,275.55L36.96,271.51L39.27,266.03L41.58,263.72L43.89,250.45L46.2,250.45L48.51,240.06L50.83,238.33L53.14,238.62L55.45,219.86L57.76,207.46L60.07,206.88L62.38,203.42L64.69,202.26L67,200.24L69.31,199.95L71.62,208.32L73.93,215.82L76.24,225.92L80.86,253.91L83.17,258.82L85.48,259.68L87.79,274.97L90.1,286.8L92.41,304.69L94.72,300.08L97.03,306.14L101.65,309.89L103.96,323.74L106.27,333.26L108.58,331.24L110.89,346.53L113.2,349.99L117.82,349.99L120.13,352.88L122.44,358.94L124.75,359.23L129.37,363.55L131.68,363.55L133.99,363.55L136.3,367.02L143.23,365.28L145.54,365.57L147.85,366.73L150.17,367.02L152.48,368.75L154.79,367.88L157.1,367.3L159.41,367.59L166.34,367.02L168.65,365.86L170.96,363.84L173.27,365L175.58,365.57L177.89,364.71L180.2,362.4L182.51,361.25L184.82,357.49L187.13,357.78L189.44,353.45L191.75,351.15L194.06,354.03L196.37,350.86L198.68,350.86L200.99,349.99L203.3,345.66L205.61,344.51L207.92,341.05L210.23,341.91L212.54,344.8L214.85,345.09L217.16,341.62L219.47,343.07L221.78,342.49L224.09,345.09L226.4,340.76L228.71,341.34L231.02,340.47L233.33,341.34L235.64,337.87L237.95,338.16L242.57,333.26L244.88,333.83L247.19,334.7L249.5,326.91L251.82,328.64L254.13,328.93L261.06,315.95L263.37,313.93L267.99,302.67L270.3,300.94L272.61,304.4L274.92,301.81L277.23,305.56L279.54,307.87L284.16,310.75L286.47,309.6L288.78,306.71L291.09,305.56L293.4,302.67L295.71,301.81L300.33,315.37L302.64,312.19L304.95,312.19L307.26,317.1L309.57,318.83L311.88,319.41L314.19,318.54L316.5,316.81L318.81,321.72L321.12,318.25L323.43,313.35L325.74,310.75L328.05,309.89L330.36,300.36L332.67,295.46L334.98,287.09L337.29,288.25L339.6,288.25L341.91,289.98L344.22,290.55L346.53,293.44L348.84,287.09L351.16,294.31L353.47,290.84L355.78,285.65L358.09,283.34L362.71,283.34L365.02,289.98L367.33,283.63L369.64,286.51L371.95,291.71L374.26,292.57L376.57,293.73L378.88,298.34L381.19,299.5L383.5,307.29L385.81,312.19L388.12,312.48L390.43,315.08L392.74,315.08L395.05,313.35L397.36,314.5L399.67,316.23L401.98,314.21L404.29,317.39L406.6,317.39L408.91,316.52L411.22,319.7L413.53,318.83L415.84,314.21L418.15,315.08L420.46,311.04L422.77,310.75L425.08,311.91L427.39,321.72L429.7,315.66L432.01,313.93L434.32,314.5L436.63,315.37L438.94,311.04L441.25,309.02L443.56,294.31L445.87,297.19L448.18,298.06L450.5,296.61L452.81,293.15L455.12,297.48L457.43,295.75L462.05,300.94L464.36,301.52L466.67,302.96L468.98,306.42L471.29,307L473.6,310.17L475.91,305.85L478.22,307.29L480.53,308.15L482.84,312.77L485.15,314.21L487.46,316.81L492.08,313.93L494.39,314.21L496.7,317.97L499.01,314.79L501.32,321.14L503.63,321.43L505.94,323.74L508.25,339.89L510.56,348.55L512.87,352.01L515.18,360.09L517.49,363.55L524.42,363.26L526.73,362.11L531.35,361.25L533.66,359.8L535.97,361.25L538.28,359.8L540.59,365.28L542.9,365.28L545.21,367.3L547.52,366.44L549.83,367.88L552.15,367.88L554.46,369.32L556.77,368.17L559.08,371.34L561.39,372.21L563.7,373.08L566.01,373.08L568.32,372.21L570.63,372.21L572.94,371.34L575.25,371.63L577.56,372.79L579.87,373.08L582.18,374.23L584.49,373.94L586.8,373.94L589.11,374.81L598.35,375.67L600.66,377.11L612.21,377.4L614.52,377.98L623.76,378.27L626.07,378.85L628.38,379.13L630.69,377.98L633,376.25L635.31,376.25L637.62,374.23L639.93,373.36L644.55,366.73L646.86,346.24L649.17,341.91L651.49,340.18L656.11,282.19L658.42,279.01L660.73,248.14" style="vector-effect: non-scaling-stroke; fill: none; stroke: rgb(8, 115, 191); stroke-opacity: 1; stroke-width: 0.5px; opacity: 1;"/></g><g class="points"/><g class="text"/></g><g class="trace scatter traceb43f36" style="stroke-miterlimit: 2;"><g class="fills"><g><path class="js-fill" d="M683.83,380L660.73,380L660.73,248.14L663.04,239.77L665.35,219.57L667.66,212.36L669.97,175.72L672.28,141.09L674.59,75.88L676.9,60.02L679.21,14.14L681.52,0L683.83,0.29" style="fill: rgb(8, 115, 191); fill-opacity: 0.4; stroke-width: 0;"/></g></g><g class="errorbars"/><g class="lines"><path class="js-line" d="M660.73,248.14L663.04,239.77L665.35,219.57L667.66,212.36L669.97,175.72L672.28,141.09L674.59,75.88L676.9,60.02L679.21,14.14L681.52,0L683.83,0.29" style="vector-effect: non-scaling-stroke; fill: none; stroke: rgb(8, 115, 191); stroke-opacity: 1; stroke-width: 2px; opacity: 1;"/></g><g class="points"/><g class="text"/></g><g class="trace scatter trace545898" style="stroke-miterlimit: 2; opacity: 1;"><g class="fills"/><g class="errorbars"/><g class="lines"/><g class="points"><path class="point" transform="translate(683.83,0.29)" d="M15,0A15,15 0 1,1 0,-15A15,15 0 0,1 15,0Z" style="opacity: 1; stroke-width: 0px; fill: rgb(8, 115, 191); fill-opacity: 1;"/></g><g class="text"/></g></g></g><g class="overplot"/><path class="xlines-above crisp" style="fill: none; stroke-width: 1px; stroke: rgb(0, 0, 0); stroke-opacity: 0;" d=""/><path class="ylines-above crisp" style="fill: none;" d="M0,0"/><g class="overlines-above"/><g class="xaxislayer-above"><path class="xtick ticks crisp" d="M0,450v-5" transform="translate(54.62,0)" style="stroke: rgb(68, 68, 68); stroke-opacity: 1; stroke-width: 1px;"/><path class="xtick ticks crisp" d="M0,450v-5" transform="translate(126.24,0)" style="stroke: rgb(68, 68, 68); stroke-opacity: 1; stroke-width: 1px;"/><path class="xtick ticks crisp" d="M0,450v-5" transform="translate(195.54,0)" style="stroke: rgb(68, 68, 68); stroke-opacity: 1; stroke-width: 1px;"/><path class="xtick ticks crisp" d="M0,450v-5" transform="translate(267.15999999999997,0)" style="stroke: rgb(68, 68, 68); stroke-opacity: 1; stroke-width: 1px;"/><path class="xtick ticks crisp" d="M0,450v-5" transform="translate(338.78,0)" style="stroke: rgb(68, 68, 68); stroke-opacity: 1; stroke-width: 1px;"/><path class="xtick ticks crisp" d="M0,450v-5" transform="translate(403.47,0)" style="stroke: rgb(68, 68, 68); stroke-opacity: 1; stroke-width: 1px;"/><path class="xtick ticks crisp" d="M0,450v-5" transform="translate(475.08,0)" style="stroke: rgb(68, 68, 68); stroke-opacity: 1; stroke-width: 1px;"/><path class="xtick ticks crisp" d="M0,450v-5" transform="translate(544.39,0)" style="stroke: rgb(68, 68, 68); stroke-opacity: 1; stroke-width: 1px;"/><path class="xtick ticks crisp" d="M0,450v-5" transform="translate(616.01,0)" style="stroke: rgb(68, 68, 68); stroke-opacity: 1; stroke-width: 1px;"/><path class="xtick ticks crisp" d="M0,450v-5" transform="translate(685.31,0)" style="stroke: rgb(68, 68, 68); stroke-opacity: 1; stroke-width: 1px;"/><g class="xtick"><text text-anchor="middle" x="0" y="469" transform="translate(54.62,0)" style="font-family: 'Open Sans', verdana, arial, sans-serif; font-size: 18px; fill: rgb(42, 63, 95); fill-opacity: 1; white-space: pre;">01/10</text></g><g class="xtick"><text text-anchor="middle" x="0" y="469" transform="translate(126.24,0)" style="font-family: 'Open Sans', verdana, arial, sans-serif; font-size: 18px; fill: rgb(42, 63, 95); fill-opacity: 1; white-space: pre;">01/11</text></g><g class="xtick"><text text-anchor="middle" x="0" y="469" transform="translate(195.54,0)" style="font-family: 'Open Sans', verdana, arial, sans-serif; font-size: 18px; fill: rgb(42, 63, 95); fill-opacity: 1; white-space: pre;">01/12</text></g><g class="xtick"><text text-anchor="middle" x="0" y="469" transform="translate(267.15999999999997,0)" style="font-family: 'Open Sans', verdana, arial, sans-serif; font-size: 18px; fill: rgb(42, 63, 95); fill-opacity: 1; white-space: pre;">01/01</text></g><g class="xtick"><text text-anchor="middle" x="0" y="469" transform="translate(338.78,0)" style="font-family: 'Open Sans', verdana, arial, sans-serif; font-size: 18px; fill: rgb(42, 63, 95); fill-opacity: 1; white-space: pre;">01/02</text></g><g class="xtick"><text text-anchor="middle" x="0" y="469" transform="translate(403.47,0)" style="font-family: 'Open Sans', verdana, arial, sans-serif; font-size: 18px; fill: rgb(42, 63, 95); fill-opacity: 1; white-space: pre;">01/03</text></g><g class="xtick"><text text-anchor="middle" x="0" y="469" transform="translate(475.08,0)" style="font-family: 'Open Sans', verdana, arial, sans-serif; font-size: 18px; fill: rgb(42, 63, 95); fill-opacity: 1; white-space: pre;">01/04</text></g><g class="xtick"><text text-anchor="middle" x="0" y="469" transform="translate(544.39,0)" style="font-family: 'Open Sans', verdana, arial, sans-serif; font-size: 18px; fill: rgb(42, 63, 95); fill-opacity: 1; white-space: pre;">01/05</text></g><g class="xtick"><text text-anchor="middle" x="0" y="469" transform="translate(616.01,0)" style="font-family: 'Open Sans', verdana, arial, sans-serif; font-size: 18px; fill: rgb(42, 63, 95); fill-opacity: 1; white-space: pre;">01/06</text></g><g class="xtick"><text text-anchor="middle" x="0" y="469" transform="translate(685.31,0)" style="font-family: 'Open Sans', verdana, arial, sans-serif; font-size: 18px; fill: rgb(42, 63, 95); fill-opacity: 1; white-space: pre;">01/07</text></g></g><g class="yaxislayer-above"/><g class="overaxes-above"/></g></g><g class="polarlayer"/><g class="ternarylayer"/><g class="geolayer"/><g class="funnelarealayer"/><g class="pielayer"/><g class="treemaplayer"/><g class="sunburstlayer"/><g class="glimages"/><defs id="topdefs-1a96a1"><g class="clips"/></defs><g class="layer-above"><g class="imagelayer"/><g class="shapelayer"><path data-index="0" fill-rule="evenodd" d="M-1248.35,423.71L440.43,423.71" clip-path="url('#clip1a96a1xy')" style="opacity: 1; stroke: rgb(255, 0, 0); stroke-opacity: 1; fill: rgb(0, 0, 0); fill-opacity: 0; stroke-dasharray: 3px, 3px; stroke-width: 1.5px;"/></g></g><g class="infolayer"><g class="g-gtitle"><text class="gtitle" x="375" y="25" text-anchor="middle" dy="0.7em" style="font-family: 'Open Sans', verdana, arial, sans-serif; font-size: 50px; fill: rgb(42, 63, 95); opacity: 1; font-weight: normal; white-space: pre;"><tspan style="font-weight:bold">Haute-Corse (2B)</tspan></text></g><g class="g-xtitle"/><g class="annotation" data-index="0" style="opacity: 1;"><g class="annotation-text-g" transform="rotate(0,691.83,10.290000000000006)"><g class="cursor-pointer" transform="translate(634, -26)"><rect class="bg" x="0.5" y="0.5" width="115" height="71" style="stroke-width: 1px; stroke: rgb(0, 0, 0); stroke-opacity: 0; fill: rgb(255, 255, 255); fill-opacity: 0.6;"/><text class="annotation-text" text-anchor="middle" x="57.8125" y="55.5" style="font-family: 'Open Sans', verdana, arial, sans-serif; font-size: 50px; fill: rgb(8, 115, 191); fill-opacity: 1; white-space: pre;"> <tspan style="font-weight:bold">722 </tspan></text></g></g><g class="annotation-arrow-g" style="opacity: 1;"><path d="M720.23,45.790000000000006L731.83,60.290000000000006" style="stroke-width: 1px; stroke: rgb(8, 115, 191); stroke-opacity: 1; stroke-dasharray: 0px, 0px, 18.5691px, 18.5691px;"/></g></g></g></svg>