<svg class="main-svg" xmlns="http://www.w3.org/2000/svg" xmlns:xlink="http://www.w3.org/1999/xlink" width="1125" height="750" style="" viewBox="0 0 750 500"><rect x="0" y="0" width="750" height="500" style="fill: rgb(0, 0, 0); fill-opacity: 0;"/><defs id="defs-c0f431"><g class="clips"><clipPath id="clipc0f431xyplot" class="plotclip"><rect width="685" height="380"/></clipPath><clipPath class="axesclip" id="clipc0f431x"><rect x="50" y="0" width="685" height="500"/></clipPath><clipPath class="axesclip" id="clipc0f431y"><rect x="0" y="70" width="750" height="380"/></clipPath><clipPath class="axesclip" id="clipc0f431xy"><rect x="50" y="70" width="685" height="380"/></clipPath></g><g class="gradients"/></defs><g class="bglayer"><rect class="bg" x="50" y="70" width="685" height="380" style="fill: rgb(0, 0, 0); fill-opacity: 0; stroke-width: 0;"/></g><g class="layer-below"><g class="imagelayer"/><g class="shapelayer"/></g><g class="cartesianlayer"><g class="subplot xy"><g class="layer-subplot"><g class="shapelayer"/><g class="imagelayer"/></g><g class="gridlayer"><g class="x"><path class="xgrid crisp" transform="translate(149.04000000000002,0)" d="M0,70v380" style="stroke: rgb(255, 255, 255); stroke-opacity: 1; stroke-width: 1px;"/><path class="xgrid crisp" transform="translate(264.58000000000004,0)" d="M0,70v380" style="stroke: rgb(255, 255, 255); stroke-opacity: 1; stroke-width: 1px;"/><path class="xgrid crisp" transform="translate(380.12,0)" d="M0,70v380" style="stroke: rgb(255, 255, 255); stroke-opacity: 1; stroke-width: 1px;"/><path class="xgrid crisp" transform="translate(495.66,0)" d="M0,70v380" style="stroke: rgb(255, 255, 255); stroke-opacity: 1; stroke-width: 1px;"/><path class="xgrid crisp" transform="translate(611.2,0)" d="M0,70v380" style="stroke: rgb(255, 255, 255); stroke-opacity: 1; stroke-width: 1px;"/><path class="xgrid crisp" transform="translate(726.75,0)" d="M0,70v380" style="stroke: rgb(255, 255, 255); stroke-opacity: 1; stroke-width: 1px;"/></g><g class="y"/></g><g class="zerolinelayer"/><path class="xlines-below"/><path class="ylines-below"/><g class="overlines-below"/><g class="xaxislayer-below"/><g class="yaxislayer-below"/><g class="overaxes-below"/><g class="plot" transform="translate(50, 70)" clip-path="url('#clipc0f431xyplot')"><g class="scatterlayer mlayer"><g class="trace scatter tracec78be9" style="stroke-miterlimit: 2;"><g class="fills"><g><path class="js-fill" d="M544.7,380L-1122.41,380L-1122.41,373.82L-924.34,378.93L-916.08,379.36L-404.4,375.74L-396.14,375.31L-354.88,371.04L-346.63,369.12L-313.61,363.58L-305.36,359.1L-255.84,352.92L-247.59,355.69L-239.34,354.62L-231.08,357.4L-198.07,362.3L-189.82,361.66L-181.57,359.74L-173.31,353.56L-140.3,342.26L-132.05,339.48L-107.29,335.86L-99.04,336.5L-90.78,334.15L-82.53,324.13L-66.02,320.51L-57.77,324.34L-33.01,324.13L-24.76,332.66L-16.51,333.3L-8.25,337.35L0,332.66L8.25,331.81L16.51,332.02L24.76,330.74L33.01,329.46L41.27,320.93L49.52,314.11L57.77,308.35L66.02,307.92L74.28,306.22L82.53,295.77L90.78,284.04L99.04,278.28L107.29,268.05L115.54,265.06L123.8,243.31L132.05,241.82L140.3,229.66L148.55,199.81L156.81,181.68L165.06,163.34L173.31,129.01L181.57,114.94L189.82,112.38L198.07,82.1L206.33,76.98L222.83,35.19L231.08,23.03L239.34,22.39L247.59,22.82L255.84,24.74L264.1,10.45L272.35,0L280.6,1.92L297.11,7.68L305.36,7.25L313.61,10.88L321.87,15.99L330.12,82.31L338.37,89.56L346.63,108.75L354.88,114.51L363.13,115.58L371.39,131.78L379.64,147.35L387.89,114.51L396.14,136.48L404.4,147.78L412.65,161.43L420.9,164.2L429.16,177.21L437.41,185.95L445.66,195.12L453.92,199.6L462.17,206.42L470.42,209.41L486.93,205.78L495.18,228.6L503.43,235.42L511.69,236.06L519.94,234.78L528.19,238.19L536.45,238.41L544.7,236.7" style="fill: rgb(8, 115, 191); fill-opacity: 0.2; stroke-width: 0;"/></g></g><g class="errorbars"/><g class="lines"><path class="js-line" d="M-1122.41,373.82L-924.34,378.93L-916.08,379.36L-404.4,375.74L-396.14,375.31L-354.88,371.04L-346.63,369.12L-313.61,363.58L-305.36,359.1L-255.84,352.92L-247.59,355.69L-239.34,354.62L-231.08,357.4L-198.07,362.3L-189.82,361.66L-181.57,359.74L-173.31,353.56L-140.3,342.26L-132.05,339.48L-107.29,335.86L-99.04,336.5L-90.78,334.15L-82.53,324.13L-66.02,320.51L-57.77,324.34L-33.01,324.13L-24.76,332.66L-16.51,333.3L-8.25,337.35L0,332.66L8.25,331.81L16.51,332.02L24.76,330.74L33.01,329.46L41.27,320.93L49.52,314.11L57.77,308.35L66.02,307.92L74.28,306.22L82.53,295.77L90.78,284.04L99.04,278.28L107.29,268.05L115.54,265.06L123.8,243.31L132.05,241.82L140.3,229.66L148.55,199.81L156.81,181.68L165.06,163.34L173.31,129.01L181.57,114.94L189.82,112.38L198.07,82.1L206.33,76.98L222.83,35.19L231.08,23.03L239.34,22.39L247.59,22.82L255.84,24.74L264.1,10.45L272.35,0L280.6,1.92L297.11,7.68L305.36,7.25L313.61,10.88L321.87,15.99L330.12,82.31L338.37,89.56L346.63,108.75L354.88,114.51L363.13,115.58L371.39,131.78L379.64,147.35L387.89,114.51L396.14,136.48L404.4,147.78L412.65,161.43L420.9,164.2L429.16,177.21L437.41,185.95L445.66,195.12L453.92,199.6L462.17,206.42L470.42,209.41L486.93,205.78L495.18,228.6L503.43,235.42L511.69,236.06L519.94,234.78L528.19,238.19L536.45,238.41L544.7,236.7" style="vector-effect: non-scaling-stroke; fill: none; stroke: rgb(8, 115, 191); stroke-opacity: 1; stroke-width: 0.5px; opacity: 1;"/></g><g class="points"/><g class="text"/></g><g class="trace scatter tracedbf4e5" style="stroke-miterlimit: 2;"><g class="fills"><g><path class="js-fill" d="M627.23,380L544.7,380L544.7,236.7L552.95,226.46L561.2,213.24L569.46,211.32L577.71,204.29L585.96,201.73L594.22,200.88L602.47,196.82L610.72,191.71L618.98,194.69L627.23,204.5" style="fill: rgb(8, 115, 191); fill-opacity: 0.4; stroke-width: 0;"/></g></g><g class="errorbars"/><g class="lines"><path class="js-line" d="M544.7,236.7L552.95,226.46L561.2,213.24L569.46,211.32L577.71,204.29L585.96,201.73L594.22,200.88L602.47,196.82L610.72,191.71L618.98,194.69L627.23,204.5" style="vector-effect: non-scaling-stroke; fill: none; stroke: rgb(8, 115, 191); stroke-opacity: 1; stroke-width: 2px; opacity: 1;"/></g><g class="points"/><g class="text"/></g><g class="trace scatter trace77ece9" style="stroke-miterlimit: 2; opacity: 1;"><g class="fills"/><g class="errorbars"/><g class="lines"/><g class="points"><path class="point" transform="translate(627.23,204.5)" d="M15,0A15,15 0 1,1 0,-15A15,15 0 0,1 15,0Z" style="opacity: 1; stroke-width: 0px; fill: rgb(8, 115, 191); fill-opacity: 1;"/></g><g class="text"/></g></g></g><g class="overplot"/><path class="xlines-above crisp" style="fill: none; stroke-width: 1px; stroke: rgb(0, 0, 0); stroke-opacity: 0;" d=""/><path class="ylines-above crisp" style="fill: none;" d="M0,0"/><g class="overlines-above"/><g class="xaxislayer-above"><path class="xtick ticks crisp" d="M0,450v-5" transform="translate(149.04000000000002,0)" style="stroke: rgb(68, 68, 68); stroke-opacity: 1; stroke-width: 1px;"/><path class="xtick ticks crisp" d="M0,450v-5" transform="translate(264.58000000000004,0)" style="stroke: rgb(68, 68, 68); stroke-opacity: 1; stroke-width: 1px;"/><path class="xtick ticks crisp" d="M0,450v-5" transform="translate(380.12,0)" style="stroke: rgb(68, 68, 68); stroke-opacity: 1; stroke-width: 1px;"/><path class="xtick ticks crisp" d="M0,450v-5" transform="translate(495.66,0)" style="stroke: rgb(68, 68, 68); stroke-opacity: 1; stroke-width: 1px;"/><path class="xtick ticks crisp" d="M0,450v-5" transform="translate(611.2,0)" style="stroke: rgb(68, 68, 68); stroke-opacity: 1; stroke-width: 1px;"/><path class="xtick ticks crisp" d="M0,450v-5" transform="translate(726.75,0)" style="stroke: rgb(68, 68, 68); stroke-opacity: 1; stroke-width: 1px;"/><g class="xtick"><text text-anchor="middle" x="0" y="469" transform="translate(149.04000000000002,0)" style="font-family: 'Open Sans', verdana, arial, sans-serif; font-size: 18px; fill: rgb(42, 63, 95); fill-opacity: 1; white-space: pre;">11/10</text></g><g class="xtick"><text text-anchor="middle" x="0" y="469" transform="translate(264.58000000000004,0)" style="font-family: 'Open Sans', verdana, arial, sans-serif; font-size: 18px; fill: rgb(42, 63, 95); fill-opacity: 1; white-space: pre;">25/10</text></g><g class="xtick"><text text-anchor="middle" x="0" y="469" transform="translate(380.12,0)" style="font-family: 'Open Sans', verdana, arial, sans-serif; font-size: 18px; fill: rgb(42, 63, 95); fill-opacity: 1; white-space: pre;">08/11</text></g><g class="xtick"><text text-anchor="middle" x="0" y="469" transform="translate(495.66,0)" style="font-family: 'Open Sans', verdana, arial, sans-serif; font-size: 18px; fill: rgb(42, 63, 95); fill-opacity: 1; white-space: pre;">22/11</text></g><g class="xtick"><text text-anchor="middle" x="0" y="469" transform="translate(611.2,0)" style="font-family: 'Open Sans', verdana, arial, sans-serif; font-size: 18px; fill: rgb(42, 63, 95); fill-opacity: 1; white-space: pre;">06/12</text></g><g class="xtick"><text text-anchor="middle" x="0" y="469" transform="translate(726.75,0)" style="font-family: 'Open Sans', verdana, arial, sans-serif; font-size: 18px; fill: rgb(42, 63, 95); fill-opacity: 1; white-space: pre;">20/12</text></g></g><g class="yaxislayer-above"/><g class="overaxes-above"/></g></g><g class="polarlayer"/><g class="ternarylayer"/><g class="geolayer"/><g class="funnelarealayer"/><g class="pielayer"/><g class="treemaplayer"/><g class="sunburstlayer"/><g class="glimages"/><defs id="topdefs-c0f431"><g class="clips"/></defs><g class="layer-above"><g class="imagelayer"/><g class="shapelayer"><path data-index="0" fill-rule="evenodd" d="M-4588.19,414.59L1444.76,414.59" clip-path="url('#clipc0f431xy')" style="opacity: 1; stroke: rgb(255, 0, 0); stroke-opacity: 1; fill: rgb(0, 0, 0); fill-opacity: 0; stroke-dasharray: 3px, 3px; stroke-width: 1.5px;"/></g></g><g class="infolayer"><g class="g-gtitle"><text class="gtitle" x="375" y="25" text-anchor="middle" dy="0.7em" style="font-family: 'Open Sans', verdana, arial, sans-serif; font-size: 50px; fill: rgb(42, 63, 95); opacity: 1; font-weight: normal; white-space: pre;"><tspan style="font-weight:bold">Yonne (89)</tspan></text></g><g class="g-xtitle"/><g class="annotation" data-index="0" style="opacity: 1;"><g class="annotation-text-g" transform="rotate(0,635.23,214.5)"><g class="cursor-pointer" transform="translate(577, 179)"><rect class="bg" x="0.5" y="0.5" width="115" height="71" style="stroke-width: 1px; stroke: rgb(0, 0, 0); stroke-opacity: 0; fill: rgb(255, 255, 255); fill-opacity: 0.6;"/><text class="annotation-text" text-anchor="middle" x="57.8125" y="55.5" style="font-family: 'Open Sans', verdana, arial, sans-serif; font-size: 50px; fill: rgb(8, 115, 191); fill-opacity: 1; white-space: pre;"> <tspan style="font-weight:bold">247 </tspan></text></g></g><g class="annotation-arrow-g" style="opacity: 1;"><path d="M663.63,250L675.23,264.5" style="stroke-width: 1px; stroke: rgb(8, 115, 191); stroke-opacity: 1; stroke-dasharray: 0px, 0px, 18.569px, 18.569px;"/></g></g></g></svg>