<svg class="main-svg" xmlns="http://www.w3.org/2000/svg" xmlns:xlink="http://www.w3.org/1999/xlink" width="1125" height="750" style="" viewBox="0 0 750 500"><rect x="0" y="0" width="750" height="500" style="fill: rgb(0, 0, 0); fill-opacity: 0;"/><defs id="defs-7593ab"><g class="clips"><clipPath id="clip7593abxyplot" class="plotclip"><rect width="700" height="380"/></clipPath><clipPath class="axesclip" id="clip7593abx"><rect x="50" y="0" width="700" height="500"/></clipPath><clipPath class="axesclip" id="clip7593aby"><rect x="0" y="70" width="750" height="380"/></clipPath><clipPath class="axesclip" id="clip7593abxy"><rect x="50" y="70" width="700" height="380"/></clipPath></g><g class="gradients"/></defs><g class="bglayer"><rect class="bg" x="50" y="70" width="700" height="380" style="fill: rgb(0, 0, 0); fill-opacity: 0; stroke-width: 0;"/></g><g class="layer-below"><g class="imagelayer"/><g class="shapelayer"/></g><g class="cartesianlayer"><g class="subplot xy"><g class="layer-subplot"><g class="shapelayer"/><g class="imagelayer"/></g><g class="gridlayer"><g class="x"><path class="xgrid crisp" transform="translate(120,0)" d="M0,70v380" style="stroke: rgb(255, 255, 255); stroke-opacity: 1; stroke-width: 1px;"/><path class="xgrid crisp" transform="translate(201.67,0)" d="M0,70v380" style="stroke: rgb(255, 255, 255); stroke-opacity: 1; stroke-width: 1px;"/><path class="xgrid crisp" transform="translate(283.33000000000004,0)" d="M0,70v380" style="stroke: rgb(255, 255, 255); stroke-opacity: 1; stroke-width: 1px;"/><path class="xgrid crisp" transform="translate(365,0)" d="M0,70v380" style="stroke: rgb(255, 255, 255); stroke-opacity: 1; stroke-width: 1px;"/><path class="xgrid crisp" transform="translate(446.67,0)" d="M0,70v380" style="stroke: rgb(255, 255, 255); stroke-opacity: 1; stroke-width: 1px;"/><path class="xgrid crisp" transform="translate(528.3299999999999,0)" d="M0,70v380" style="stroke: rgb(255, 255, 255); stroke-opacity: 1; stroke-width: 1px;"/><path class="xgrid crisp" transform="translate(610,0)" d="M0,70v380" style="stroke: rgb(255, 255, 255); stroke-opacity: 1; stroke-width: 1px;"/><path class="xgrid crisp" transform="translate(691.67,0)" d="M0,70v380" style="stroke: rgb(255, 255, 255); stroke-opacity: 1; stroke-width: 1px;"/></g><g class="y"/></g><g class="zerolinelayer"/><path class="xlines-below"/><path class="ylines-below"/><g class="overlines-below"/><g class="xaxislayer-below"/><g class="yaxislayer-below"/><g class="overaxes-below"/><g class="plot" transform="translate(50, 70)" clip-path="url('#clip7593abxyplot')"><g class="scatterlayer mlayer"><g class="trace scatter traceead728" style="stroke-miterlimit: 2;"><g class="fills"><g><path class="js-fill" d="M600.83,380L-793.33,380L-793.33,363.02L-770,367.79L-764.17,368.79L-647.5,376.34L-641.67,376.23L-478.33,377.89L-472.5,378.22L-431.67,377.67L-425.83,377L-326.67,366.35L-320.83,364.46L-309.17,362.58L-303.33,360.8L-285.83,351.48L-280,352.48L-274.17,351.26L-268.33,343.71L-262.5,339.82L-256.67,340.38L-239.17,340.16L-233.33,340.82L-221.67,346.48L-215.83,345.26L-204.17,338.6L-198.33,336.94L-180.83,333.17L-175,326.17L-169.17,328.62L-163.33,325.18L-151.67,324.73L-145.83,320.18L-140,317.41L-134.17,321.62L-128.33,318.18L-122.5,321.4L-110.83,322.18L-105,327.84L-93.33,324.07L-87.5,324.18L-75.83,322.18L-70,321.96L-64.17,321.07L-58.33,318.74L-52.5,319.07L-46.67,317.74L-35,318.29L-29.17,317.52L-23.33,317.18L-17.5,318.74L-11.67,318.18L-5.83,316.52L0,316.19L5.83,312.52L11.67,311.64L17.5,306.64L23.33,302.65L29.17,299.76L35,293.21L40.83,281.12L46.67,277.9L52.5,269.24L58.33,268.57L64.17,258.36L70,244.6L75.83,242.16L81.67,234.5L87.5,232.17L93.33,227.51L99.17,207.54L105,196.33L110.83,173.35L122.5,112.76L128.33,94.67L134.17,84.9L140,58.38L145.83,28.19L151.67,15.32L157.5,10.65L163.33,2.22L169.17,0L175,13.76L180.83,2.66L186.67,4.44L192.5,1.55L198.33,4.11L204.17,22.64L210,35.51L215.83,34.29L221.67,65.7L227.5,86.34L233.33,136.73L239.17,153.04L245,163.81L250.83,165.7L256.67,168.58L262.5,178.12L268.33,199.88L274.17,188.22L280,204.21L285.83,222.74L291.67,231.84L297.5,236.95L303.33,250.04L309.17,253.04L315,262.69L326.67,272.46L332.5,274.12L338.33,274.79L344.17,278.9L350,274.9L355.83,278.9L361.67,278.12L367.5,280.12L373.33,279.56L379.17,281L385,278.01L390.83,283.89L396.67,281.34L402.5,282.23L408.33,278.01L414.17,278.34L425.83,276.01L431.67,274.35L437.5,275.23L443.33,267.69L455,264.58L460.83,264.25L466.67,261.92L472.5,264.69L478.33,265.25L484.17,275.79L490,294.54L495.83,295.99L501.67,295.65L507.5,294.32L513.33,294.1L519.17,288.66L525,281.78L530.83,280.67L536.67,278.79L542.5,280.78L548.33,272.24L554.17,270.13L565.83,267.46L571.67,247.04L577.5,244.49L583.33,244.38L589.17,247.04L595,240.72L600.83,238.17" style="fill: rgb(8, 115, 191); fill-opacity: 0.2; stroke-width: 0;"/></g></g><g class="errorbars"/><g class="lines"><path class="js-line" d="M-793.33,363.02L-770,367.79L-764.17,368.79L-647.5,376.34L-641.67,376.23L-478.33,377.89L-472.5,378.22L-431.67,377.67L-425.83,377L-326.67,366.35L-320.83,364.46L-309.17,362.58L-303.33,360.8L-285.83,351.48L-280,352.48L-274.17,351.26L-268.33,343.71L-262.5,339.82L-256.67,340.38L-239.17,340.16L-233.33,340.82L-221.67,346.48L-215.83,345.26L-204.17,338.6L-198.33,336.94L-180.83,333.17L-175,326.17L-169.17,328.62L-163.33,325.18L-151.67,324.73L-145.83,320.18L-140,317.41L-134.17,321.62L-128.33,318.18L-122.5,321.4L-110.83,322.18L-105,327.84L-93.33,324.07L-87.5,324.18L-75.83,322.18L-70,321.96L-64.17,321.07L-58.33,318.74L-52.5,319.07L-46.67,317.74L-35,318.29L-29.17,317.52L-23.33,317.18L-17.5,318.74L-11.67,318.18L-5.83,316.52L0,316.19L5.83,312.52L11.67,311.64L17.5,306.64L23.33,302.65L29.17,299.76L35,293.21L40.83,281.12L46.67,277.9L52.5,269.24L58.33,268.57L64.17,258.36L70,244.6L75.83,242.16L81.67,234.5L87.5,232.17L93.33,227.51L99.17,207.54L105,196.33L110.83,173.35L122.5,112.76L128.33,94.67L134.17,84.9L140,58.38L145.83,28.19L151.67,15.32L157.5,10.65L163.33,2.22L169.17,0L175,13.76L180.83,2.66L186.67,4.44L192.5,1.55L198.33,4.11L204.17,22.64L210,35.51L215.83,34.29L221.67,65.7L227.5,86.34L233.33,136.73L239.17,153.04L245,163.81L250.83,165.7L256.67,168.58L262.5,178.12L268.33,199.88L274.17,188.22L280,204.21L285.83,222.74L291.67,231.84L297.5,236.95L303.33,250.04L309.17,253.04L315,262.69L326.67,272.46L332.5,274.12L338.33,274.79L344.17,278.9L350,274.9L355.83,278.9L361.67,278.12L367.5,280.12L373.33,279.56L379.17,281L385,278.01L390.83,283.89L396.67,281.34L402.5,282.23L408.33,278.01L414.17,278.34L425.83,276.01L431.67,274.35L437.5,275.23L443.33,267.69L455,264.58L460.83,264.25L466.67,261.92L472.5,264.69L478.33,265.25L484.17,275.79L490,294.54L495.83,295.99L501.67,295.65L507.5,294.32L513.33,294.1L519.17,288.66L525,281.78L530.83,280.67L536.67,278.79L542.5,280.78L548.33,272.24L554.17,270.13L565.83,267.46L571.67,247.04L577.5,244.49L583.33,244.38L589.17,247.04L595,240.72L600.83,238.17" style="vector-effect: non-scaling-stroke; fill: none; stroke: rgb(8, 115, 191); stroke-opacity: 1; stroke-width: 0.5px; opacity: 1;"/></g><g class="points"/><g class="text"/></g><g class="trace scatter trace86f585" style="stroke-miterlimit: 2;"><g class="fills"><g><path class="js-fill" d="M659.17,380L600.83,380L600.83,238.17L606.67,240.05L612.5,233.39L618.33,232.95L624.17,231.29L635.83,211.53L641.67,205.87L647.5,196.99L653.33,199.66L659.17,199.88" style="fill: rgb(8, 115, 191); fill-opacity: 0.4; stroke-width: 0;"/></g></g><g class="errorbars"/><g class="lines"><path class="js-line" d="M600.83,238.17L606.67,240.05L612.5,233.39L618.33,232.95L624.17,231.29L635.83,211.53L641.67,205.87L647.5,196.99L653.33,199.66L659.17,199.88" style="vector-effect: non-scaling-stroke; fill: none; stroke: rgb(8, 115, 191); stroke-opacity: 1; stroke-width: 2px; opacity: 1;"/></g><g class="points"/><g class="text"/></g><g class="trace scatter traceeb2a38" style="stroke-miterlimit: 2; opacity: 1;"><g class="fills"/><g class="errorbars"/><g class="lines"/><g class="points"><path class="point" transform="translate(659.17,199.88)" d="M15,0A15,15 0 1,1 0,-15A15,15 0 0,1 15,0Z" style="opacity: 1; stroke-width: 0px; fill: rgb(8, 115, 191); fill-opacity: 1;"/></g><g class="text"/></g></g></g><g class="overplot"/><path class="xlines-above crisp" style="fill: none; stroke-width: 1px; stroke: rgb(0, 0, 0); stroke-opacity: 0;" d=""/><path class="ylines-above crisp" style="fill: none;" d="M0,0"/><g class="overlines-above"/><g class="xaxislayer-above"><path class="xtick ticks crisp" d="M0,450v-5" transform="translate(120,0)" style="stroke: rgb(68, 68, 68); stroke-opacity: 1; stroke-width: 1px;"/><path class="xtick ticks crisp" d="M0,450v-5" transform="translate(201.67,0)" style="stroke: rgb(68, 68, 68); stroke-opacity: 1; stroke-width: 1px;"/><path class="xtick ticks crisp" d="M0,450v-5" transform="translate(283.33000000000004,0)" style="stroke: rgb(68, 68, 68); stroke-opacity: 1; stroke-width: 1px;"/><path class="xtick ticks crisp" d="M0,450v-5" transform="translate(365,0)" style="stroke: rgb(68, 68, 68); stroke-opacity: 1; stroke-width: 1px;"/><path class="xtick ticks crisp" d="M0,450v-5" transform="translate(446.67,0)" style="stroke: rgb(68, 68, 68); stroke-opacity: 1; stroke-width: 1px;"/><path class="xtick ticks crisp" d="M0,450v-5" transform="translate(528.3299999999999,0)" style="stroke: rgb(68, 68, 68); stroke-opacity: 1; stroke-width: 1px;"/><path class="xtick ticks crisp" d="M0,450v-5" transform="translate(610,0)" style="stroke: rgb(68, 68, 68); stroke-opacity: 1; stroke-width: 1px;"/><path class="xtick ticks crisp" d="M0,450v-5" transform="translate(691.67,0)" style="stroke: rgb(68, 68, 68); stroke-opacity: 1; stroke-width: 1px;"/><g class="xtick"><text text-anchor="middle" x="0" y="469" transform="translate(120,0)" style="font-family: 'Open Sans', verdana, arial, sans-serif; font-size: 18px; fill: rgb(42, 63, 95); fill-opacity: 1; white-space: pre;">11/10</text></g><g class="xtick"><text text-anchor="middle" x="0" y="469" transform="translate(201.67,0)" style="font-family: 'Open Sans', verdana, arial, sans-serif; font-size: 18px; fill: rgb(42, 63, 95); fill-opacity: 1; white-space: pre;">25/10</text></g><g class="xtick"><text text-anchor="middle" x="0" y="469" transform="translate(283.33000000000004,0)" style="font-family: 'Open Sans', verdana, arial, sans-serif; font-size: 18px; fill: rgb(42, 63, 95); fill-opacity: 1; white-space: pre;">08/11</text></g><g class="xtick"><text text-anchor="middle" x="0" y="469" transform="translate(365,0)" style="font-family: 'Open Sans', verdana, arial, sans-serif; font-size: 18px; fill: rgb(42, 63, 95); fill-opacity: 1; white-space: pre;">22/11</text></g><g class="xtick"><text text-anchor="middle" x="0" y="469" transform="translate(446.67,0)" style="font-family: 'Open Sans', verdana, arial, sans-serif; font-size: 18px; fill: rgb(42, 63, 95); fill-opacity: 1; white-space: pre;">06/12</text></g><g class="xtick"><text text-anchor="middle" x="0" y="469" transform="translate(528.3299999999999,0)" style="font-family: 'Open Sans', verdana, arial, sans-serif; font-size: 18px; fill: rgb(42, 63, 95); fill-opacity: 1; white-space: pre;">20/12</text></g><g class="xtick"><text text-anchor="middle" x="0" y="469" transform="translate(610,0)" style="font-family: 'Open Sans', verdana, arial, sans-serif; font-size: 18px; fill: rgb(42, 63, 95); fill-opacity: 1; white-space: pre;">03/01</text></g><g class="xtick"><text text-anchor="middle" x="0" y="469" transform="translate(691.67,0)" style="font-family: 'Open Sans', verdana, arial, sans-serif; font-size: 18px; fill: rgb(42, 63, 95); fill-opacity: 1; white-space: pre;">17/01</text></g></g><g class="yaxislayer-above"/><g class="overaxes-above"/></g></g><g class="polarlayer"/><g class="ternarylayer"/><g class="geolayer"/><g class="funnelarealayer"/><g class="pielayer"/><g class="treemaplayer"/><g class="sunburstlayer"/><g class="glimages"/><defs id="topdefs-7593ab"><g class="clips"/></defs><g class="layer-above"><g class="imagelayer"/><g class="shapelayer"><path data-index="0" fill-rule="evenodd" d="M-3228.33,412.11L1035.83,412.11" clip-path="url('#clip7593abxy')" style="opacity: 1; stroke: rgb(255, 0, 0); stroke-opacity: 1; fill: rgb(0, 0, 0); fill-opacity: 0; stroke-dasharray: 3px, 3px; stroke-width: 1.5px;"/></g></g><g class="infolayer"><g class="g-gtitle"><text class="gtitle" x="375" y="25" text-anchor="middle" dy="0.7em" style="font-family: 'Open Sans', verdana, arial, sans-serif; font-size: 50px; fill: rgb(42, 63, 95); opacity: 1; font-weight: normal; white-space: pre;"><tspan style="font-weight:bold">Loiret (45)</tspan></text></g><g class="g-xtitle"/><g class="annotation" data-index="0" style="opacity: 1;"><g class="annotation-text-g" transform="rotate(0,667.17,209.88)"><g class="cursor-pointer" transform="translate(609, 174)"><rect class="bg" x="0.5" y="0.5" width="115" height="71" style="stroke-width: 1px; stroke: rgb(0, 0, 0); stroke-opacity: 0; fill: rgb(255, 255, 255); fill-opacity: 0.6;"/><text class="annotation-text" text-anchor="middle" x="57.8125" y="55.5" style="font-family: 'Open Sans', verdana, arial, sans-serif; font-size: 50px; fill: rgb(8, 115, 191); fill-opacity: 1; white-space: pre;"> <tspan style="font-weight:bold">237 </tspan></text></g></g><g class="annotation-arrow-g" style="opacity: 1;"><path d="M695.5699999999999,245.38L707.17,259.88" style="stroke-width: 1px; stroke: rgb(8, 115, 191); stroke-opacity: 1; stroke-dasharray: 0px, 0px, 18.569px, 18.569px;"/></g></g></g></svg>