<svg class="main-svg" xmlns="http://www.w3.org/2000/svg" xmlns:xlink="http://www.w3.org/1999/xlink" width="1125" height="750" style="" viewBox="0 0 750 500"><rect x="0" y="0" width="750" height="500" style="fill: rgb(0, 0, 0); fill-opacity: 0;"/><defs id="defs-3126fc"><g class="clips"><clipPath id="clip3126fcxyplot" class="plotclip"><rect width="700" height="380"/></clipPath><clipPath class="axesclip" id="clip3126fcx"><rect x="50" y="0" width="700" height="500"/></clipPath><clipPath class="axesclip" id="clip3126fcy"><rect x="0" y="70" width="750" height="380"/></clipPath><clipPath class="axesclip" id="clip3126fcxy"><rect x="50" y="70" width="700" height="380"/></clipPath></g><g class="gradients"/></defs><g class="bglayer"><rect class="bg" x="50" y="70" width="700" height="380" style="fill: rgb(0, 0, 0); fill-opacity: 0; stroke-width: 0;"/></g><g class="layer-below"><g class="imagelayer"/><g class="shapelayer"/></g><g class="cartesianlayer"><g class="subplot xy"><g class="layer-subplot"><g class="shapelayer"/><g class="imagelayer"/></g><g class="gridlayer"><g class="x"><path class="xgrid crisp" transform="translate(133.17000000000002,0)" d="M0,70v380" style="stroke: rgb(255, 255, 255); stroke-opacity: 1; stroke-width: 1px;"/><path class="xgrid crisp" transform="translate(230.2,0)" d="M0,70v380" style="stroke: rgb(255, 255, 255); stroke-opacity: 1; stroke-width: 1px;"/><path class="xgrid crisp" transform="translate(327.23,0)" d="M0,70v380" style="stroke: rgb(255, 255, 255); stroke-opacity: 1; stroke-width: 1px;"/><path class="xgrid crisp" transform="translate(424.26,0)" d="M0,70v380" style="stroke: rgb(255, 255, 255); stroke-opacity: 1; stroke-width: 1px;"/><path class="xgrid crisp" transform="translate(521.29,0)" d="M0,70v380" style="stroke: rgb(255, 255, 255); stroke-opacity: 1; stroke-width: 1px;"/><path class="xgrid crisp" transform="translate(618.32,0)" d="M0,70v380" style="stroke: rgb(255, 255, 255); stroke-opacity: 1; stroke-width: 1px;"/><path class="xgrid crisp" transform="translate(715.35,0)" d="M0,70v380" style="stroke: rgb(255, 255, 255); stroke-opacity: 1; stroke-width: 1px;"/></g><g class="y"/></g><g class="zerolinelayer"/><path class="xlines-below"/><path class="ylines-below"/><g class="overlines-below"/><g class="xaxislayer-below"/><g class="yaxislayer-below"/><g class="overaxes-below"/><g class="plot" transform="translate(50, 70)" clip-path="url('#clip3126fcxyplot')"><g class="scatterlayer mlayer"><g class="trace scatter traceb1fe35" style="stroke-miterlimit: 2;"><g class="fills"><g><path class="js-fill" d="M582.18,380L-942.57,380L-942.57,373.85L-810.89,377.72L-803.96,376.58L-554.46,373.62L-547.52,370.65L-526.73,362.9L-519.8,362.9L-485.15,369.06L-478.22,370.2L-443.56,374.07L-436.63,374.3L-367.33,375.21L-360.4,372.48L-325.74,369.29L-318.81,371.34L-291.09,371.11L-284.16,370.65L-242.57,368.37L-235.64,367.23L-200.99,364.73L-194.06,365.87L-152.48,366.32L-145.54,364.73L-131.68,364.96L-124.75,361.76L-110.89,360.85L-103.96,363.13L-69.31,365.18L-62.38,364.27L-48.51,364.04L-41.58,364.5L-34.65,364.27L-27.72,365.41L-20.79,364.27L-13.86,364.73L-6.93,361.99L0,360.62L6.93,358.57L13.86,358.8L20.79,357.89L27.72,354.7L34.65,351.51L41.58,347.17L48.51,336L55.45,334.18L62.38,333.5L69.31,323.47L76.24,316.63L83.17,300.67L90.1,286.08L97.03,279.7L103.96,266.71L110.89,266.93L117.82,240.72L124.75,220.66L131.68,204.7L138.61,177.58L145.54,146.57L152.48,144.3L159.41,142.02L166.34,101.67L173.27,80.01L180.2,63.37L187.13,56.08L194.06,41.03L200.99,32.37L207.92,29.18L221.78,3.19L228.71,0L235.64,2.74L242.57,16.18L256.44,21.66L263.37,56.99L270.3,64.06L277.23,117.17L284.16,120.36L291.09,133.35L298.02,145.21L304.95,146.8L311.88,161.16L318.81,197.86L325.74,185.1L332.67,212L339.6,232.29L346.53,237.3L353.47,236.84L360.4,262.83L367.33,274L374.26,274.91L381.19,274L388.12,274.69L401.98,272.18L408.91,256.9L415.84,248.7L422.77,242.77L429.7,230.92L436.63,224.31L443.56,220.2L450.5,219.52L457.43,215.19L464.36,199.23L471.29,184.42L478.22,178.94L492.08,165.04L499.01,165.95L512.87,129.71L519.8,124.46L526.73,130.16L533.66,118.08L540.59,110.33L547.52,104.86L554.46,113.07L561.39,131.3L568.32,134.72L575.25,140.19L582.18,184.64" style="fill: rgb(8, 115, 191); fill-opacity: 0.2; stroke-width: 0;"/></g></g><g class="errorbars"/><g class="lines"><path class="js-line" d="M-942.57,373.85L-810.89,377.72L-803.96,376.58L-554.46,373.62L-547.52,370.65L-526.73,362.9L-519.8,362.9L-485.15,369.06L-478.22,370.2L-443.56,374.07L-436.63,374.3L-367.33,375.21L-360.4,372.48L-325.74,369.29L-318.81,371.34L-291.09,371.11L-284.16,370.65L-242.57,368.37L-235.64,367.23L-200.99,364.73L-194.06,365.87L-152.48,366.32L-145.54,364.73L-131.68,364.96L-124.75,361.76L-110.89,360.85L-103.96,363.13L-69.31,365.18L-62.38,364.27L-48.51,364.04L-41.58,364.5L-34.65,364.27L-27.72,365.41L-20.79,364.27L-13.86,364.73L-6.93,361.99L0,360.62L6.93,358.57L13.86,358.8L20.79,357.89L27.72,354.7L34.65,351.51L41.58,347.17L48.51,336L55.45,334.18L62.38,333.5L69.31,323.47L76.24,316.63L83.17,300.67L90.1,286.08L97.03,279.7L103.96,266.71L110.89,266.93L117.82,240.72L124.75,220.66L131.68,204.7L138.61,177.58L145.54,146.57L152.48,144.3L159.41,142.02L166.34,101.67L173.27,80.01L180.2,63.37L187.13,56.08L194.06,41.03L200.99,32.37L207.92,29.18L221.78,3.19L228.71,0L235.64,2.74L242.57,16.18L256.44,21.66L263.37,56.99L270.3,64.06L277.23,117.17L284.16,120.36L291.09,133.35L298.02,145.21L304.95,146.8L311.88,161.16L318.81,197.86L325.74,185.1L332.67,212L339.6,232.29L346.53,237.3L353.47,236.84L360.4,262.83L367.33,274L374.26,274.91L381.19,274L388.12,274.69L401.98,272.18L408.91,256.9L415.84,248.7L422.77,242.77L429.7,230.92L436.63,224.31L443.56,220.2L450.5,219.52L457.43,215.19L464.36,199.23L471.29,184.42L478.22,178.94L492.08,165.04L499.01,165.95L512.87,129.71L519.8,124.46L526.73,130.16L533.66,118.08L540.59,110.33L547.52,104.86L554.46,113.07L561.39,131.3L568.32,134.72L575.25,140.19L582.18,184.64" style="vector-effect: non-scaling-stroke; fill: none; stroke: rgb(8, 115, 191); stroke-opacity: 1; stroke-width: 0.5px; opacity: 1;"/></g><g class="points"/><g class="text"/></g><g class="trace scatter trace2ddd4f" style="stroke-miterlimit: 2;"><g class="fills"><g><path class="js-fill" d="M651.49,380L582.18,380L582.18,184.64L589.11,193.99L596.04,199.46L602.97,198.09L609.9,192.17L616.83,193.31L623.76,196.5L630.69,195.81L637.62,186.69L644.55,186.24L651.49,189.89" style="fill: rgb(8, 115, 191); fill-opacity: 0.4; stroke-width: 0;"/></g></g><g class="errorbars"/><g class="lines"><path class="js-line" d="M582.18,184.64L589.11,193.99L596.04,199.46L602.97,198.09L609.9,192.17L616.83,193.31L623.76,196.5L630.69,195.81L637.62,186.69L644.55,186.24L651.49,189.89" style="vector-effect: non-scaling-stroke; fill: none; stroke: rgb(8, 115, 191); stroke-opacity: 1; stroke-width: 2px; opacity: 1;"/></g><g class="points"/><g class="text"/></g><g class="trace scatter trace37ae48" style="stroke-miterlimit: 2; opacity: 1;"><g class="fills"/><g class="errorbars"/><g class="lines"/><g class="points"><path class="point" transform="translate(651.49,189.89)" d="M15,0A15,15 0 1,1 0,-15A15,15 0 0,1 15,0Z" style="opacity: 1; stroke-width: 0px; fill: rgb(8, 115, 191); fill-opacity: 1;"/></g><g class="text"/></g></g></g><g class="overplot"/><path class="xlines-above crisp" style="fill: none; stroke-width: 1px; stroke: rgb(0, 0, 0); stroke-opacity: 0;" d=""/><path class="ylines-above crisp" style="fill: none;" d="M0,0"/><g class="overlines-above"/><g class="xaxislayer-above"><path class="xtick ticks crisp" d="M0,450v-5" transform="translate(133.17000000000002,0)" style="stroke: rgb(68, 68, 68); stroke-opacity: 1; stroke-width: 1px;"/><path class="xtick ticks crisp" d="M0,450v-5" transform="translate(230.2,0)" style="stroke: rgb(68, 68, 68); stroke-opacity: 1; stroke-width: 1px;"/><path class="xtick ticks crisp" d="M0,450v-5" transform="translate(327.23,0)" style="stroke: rgb(68, 68, 68); stroke-opacity: 1; stroke-width: 1px;"/><path class="xtick ticks crisp" d="M0,450v-5" transform="translate(424.26,0)" style="stroke: rgb(68, 68, 68); stroke-opacity: 1; stroke-width: 1px;"/><path class="xtick ticks crisp" d="M0,450v-5" transform="translate(521.29,0)" style="stroke: rgb(68, 68, 68); stroke-opacity: 1; stroke-width: 1px;"/><path class="xtick ticks crisp" d="M0,450v-5" transform="translate(618.32,0)" style="stroke: rgb(68, 68, 68); stroke-opacity: 1; stroke-width: 1px;"/><path class="xtick ticks crisp" d="M0,450v-5" transform="translate(715.35,0)" style="stroke: rgb(68, 68, 68); stroke-opacity: 1; stroke-width: 1px;"/><g class="xtick"><text text-anchor="middle" x="0" y="469" transform="translate(133.17000000000002,0)" style="font-family: 'Open Sans', verdana, arial, sans-serif; font-size: 18px; fill: rgb(42, 63, 95); fill-opacity: 1; white-space: pre;">11/10</text></g><g class="xtick"><text text-anchor="middle" x="0" y="469" transform="translate(230.2,0)" style="font-family: 'Open Sans', verdana, arial, sans-serif; font-size: 18px; fill: rgb(42, 63, 95); fill-opacity: 1; white-space: pre;">25/10</text></g><g class="xtick"><text text-anchor="middle" x="0" y="469" transform="translate(327.23,0)" style="font-family: 'Open Sans', verdana, arial, sans-serif; font-size: 18px; fill: rgb(42, 63, 95); fill-opacity: 1; white-space: pre;">08/11</text></g><g class="xtick"><text text-anchor="middle" x="0" y="469" transform="translate(424.26,0)" style="font-family: 'Open Sans', verdana, arial, sans-serif; font-size: 18px; fill: rgb(42, 63, 95); fill-opacity: 1; white-space: pre;">22/11</text></g><g class="xtick"><text text-anchor="middle" x="0" y="469" transform="translate(521.29,0)" style="font-family: 'Open Sans', verdana, arial, sans-serif; font-size: 18px; fill: rgb(42, 63, 95); fill-opacity: 1; white-space: pre;">06/12</text></g><g class="xtick"><text text-anchor="middle" x="0" y="469" transform="translate(618.32,0)" style="font-family: 'Open Sans', verdana, arial, sans-serif; font-size: 18px; fill: rgb(42, 63, 95); fill-opacity: 1; white-space: pre;">20/12</text></g><g class="xtick"><text text-anchor="middle" x="0" y="469" transform="translate(715.35,0)" style="font-family: 'Open Sans', verdana, arial, sans-serif; font-size: 18px; fill: rgb(42, 63, 95); fill-opacity: 1; white-space: pre;">03/01</text></g></g><g class="yaxislayer-above"/><g class="overaxes-above"/></g></g><g class="polarlayer"/><g class="ternarylayer"/><g class="geolayer"/><g class="funnelarealayer"/><g class="pielayer"/><g class="treemaplayer"/><g class="sunburstlayer"/><g class="glimages"/><defs id="topdefs-3126fc"><g class="clips"/></defs><g class="layer-above"><g class="imagelayer"/><g class="shapelayer"><path data-index="0" fill-rule="evenodd" d="M-3845.05,409.02L1221.29,409.02" clip-path="url('#clip3126fcxy')" style="opacity: 1; stroke: rgb(255, 0, 0); stroke-opacity: 1; fill: rgb(0, 0, 0); fill-opacity: 0; stroke-dasharray: 3px, 3px; stroke-width: 1.5px;"/></g></g><g class="infolayer"><g class="g-gtitle"><text class="gtitle" x="375" y="25" text-anchor="middle" dy="0.7em" style="font-family: 'Open Sans', verdana, arial, sans-serif; font-size: 50px; fill: rgb(42, 63, 95); opacity: 1; font-weight: normal; white-space: pre;"><tspan style="font-weight:bold">Vosges (88)</tspan></text></g><g class="g-xtitle"/><g class="annotation" data-index="0" style="opacity: 1;"><g class="annotation-text-g" transform="rotate(0,659.49,199.89)"><g class="cursor-pointer" transform="translate(601, 164)"><rect class="bg" x="0.5" y="0.5" width="115" height="71" style="stroke-width: 1px; stroke: rgb(0, 0, 0); stroke-opacity: 0; fill: rgb(255, 255, 255); fill-opacity: 0.6;"/><text class="annotation-text" text-anchor="middle" x="57.8125" y="55.5" style="font-family: 'Open Sans', verdana, arial, sans-serif; font-size: 50px; fill: rgb(8, 115, 191); fill-opacity: 1; white-space: pre;"> <tspan style="font-weight:bold">231 </tspan></text></g></g><g class="annotation-arrow-g" style="opacity: 1;"><path d="M687.89,235.39L699.49,249.89" style="stroke-width: 1px; stroke: rgb(8, 115, 191); stroke-opacity: 1; stroke-dasharray: 0px, 0px, 18.569px, 18.569px;"/></g></g></g></svg>