<svg class="main-svg" xmlns="http://www.w3.org/2000/svg" xmlns:xlink="http://www.w3.org/1999/xlink" width="1125" height="750" style="" viewBox="0 0 750 500"><rect x="0" y="0" width="750" height="500" style="fill: rgb(0, 0, 0); fill-opacity: 0;"/><defs id="defs-3c5510"><g class="clips"><clipPath id="clip3c5510xyplot" class="plotclip"><rect width="700" height="380"/></clipPath><clipPath class="axesclip" id="clip3c5510x"><rect x="50" y="0" width="700" height="500"/></clipPath><clipPath class="axesclip" id="clip3c5510y"><rect x="0" y="70" width="750" height="380"/></clipPath><clipPath class="axesclip" id="clip3c5510xy"><rect x="50" y="70" width="700" height="380"/></clipPath></g><g class="gradients"/></defs><g class="bglayer"><rect class="bg" x="50" y="70" width="700" height="380" style="fill: rgb(0, 0, 0); fill-opacity: 0; stroke-width: 0;"/></g><g class="layer-below"><g class="imagelayer"/><g class="shapelayer"/></g><g class="cartesianlayer"><g class="subplot xy"><g class="layer-subplot"><g class="shapelayer"/><g class="imagelayer"/></g><g class="gridlayer"><g class="x"><path class="xgrid crisp" transform="translate(168.31,0)" d="M0,70v380" style="stroke: rgb(255, 255, 255); stroke-opacity: 1; stroke-width: 1px;"/><path class="xgrid crisp" transform="translate(306.34,0)" d="M0,70v380" style="stroke: rgb(255, 255, 255); stroke-opacity: 1; stroke-width: 1px;"/><path class="xgrid crisp" transform="translate(444.37,0)" d="M0,70v380" style="stroke: rgb(255, 255, 255); stroke-opacity: 1; stroke-width: 1px;"/><path class="xgrid crisp" transform="translate(582.39,0)" d="M0,70v380" style="stroke: rgb(255, 255, 255); stroke-opacity: 1; stroke-width: 1px;"/><path class="xgrid crisp" transform="translate(720.42,0)" d="M0,70v380" style="stroke: rgb(255, 255, 255); stroke-opacity: 1; stroke-width: 1px;"/></g><g class="y"/></g><g class="zerolinelayer"/><path class="xlines-below"/><path class="ylines-below"/><g class="overlines-below"/><g class="xaxislayer-below"/><g class="yaxislayer-below"/><g class="overaxes-below"/><g class="plot" transform="translate(50, 70)" clip-path="url('#clip3c5510xyplot')"><g class="scatterlayer mlayer"><g class="trace scatter trace24ed70" style="stroke-miterlimit: 2;"><g class="fills"><g><path class="js-fill" d="M532.39,380L-1340.85,380L-1340.85,376.34L-1192.96,379.34L-1183.1,379.34L-887.32,379.34L-877.46,379.34L-729.58,376.68L-719.72,375.68L-581.69,376.01L-571.83,376.68L-443.66,370.36L-433.8,363.38L-414.08,358.06L-404.23,355.07L-394.37,354.73L-384.51,348.75L-374.65,343.43L-364.79,345.09L-354.93,345.76L-345.07,339.44L-315.49,340.77L-305.63,339.11L-295.77,337.11L-285.92,329.47L-276.06,320.16L-266.2,319.16L-256.34,319.16L-246.48,306.53L-226.76,303.2L-216.9,306.19L-207.04,312.18L-197.18,309.85L-187.32,308.19L-177.46,311.18L-167.61,311.85L-157.75,308.85L-147.89,304.53L-138.03,292.9L-118.31,292.56L-108.45,289.24L-98.59,288.57L-88.73,285.91L-78.87,282.92L-69.01,290.24L-59.15,290.57L-49.3,292.23L-39.44,301.54L-29.58,299.21L-19.72,303.87L-9.86,307.19L0,302.54L9.86,301.54L19.72,299.55L29.58,277.94L39.44,258.32L49.3,233.05L69.01,192.83L78.87,177.53L88.73,177.2L98.59,157.59L108.45,151.27L118.31,147.94L138.03,135.31L147.89,135.98L157.75,135.64L167.61,130.99L177.46,110.04L187.32,98.08L197.18,68.49L207.04,57.18L216.9,41.89L226.76,39.56L236.62,13.63L246.48,0.33L256.34,0L266.2,16.29L276.06,15.96L285.92,25.93L295.77,25.27L305.63,51.2L315.49,44.22L325.35,52.86L335.21,60.84L345.07,79.79L354.93,87.44L364.79,91.09L374.65,88.1L384.51,121.68L394.37,164.23L404.23,165.23L414.08,181.19L423.94,188.17L433.8,188.17L443.66,211.78L453.52,228.07L463.38,215.43L473.24,241.7L483.1,243.03L502.82,243.03L512.68,258.32L522.54,276.61L532.39,280.93" style="fill: rgb(8, 115, 191); fill-opacity: 0.2; stroke-width: 0;"/></g></g><g class="errorbars"/><g class="lines"><path class="js-line" d="M-1340.85,376.34L-1192.96,379.34L-1183.1,379.34L-887.32,379.34L-877.46,379.34L-729.58,376.68L-719.72,375.68L-581.69,376.01L-571.83,376.68L-443.66,370.36L-433.8,363.38L-414.08,358.06L-404.23,355.07L-394.37,354.73L-384.51,348.75L-374.65,343.43L-364.79,345.09L-354.93,345.76L-345.07,339.44L-315.49,340.77L-305.63,339.11L-295.77,337.11L-285.92,329.47L-276.06,320.16L-266.2,319.16L-256.34,319.16L-246.48,306.53L-226.76,303.2L-216.9,306.19L-207.04,312.18L-197.18,309.85L-187.32,308.19L-177.46,311.18L-167.61,311.85L-157.75,308.85L-147.89,304.53L-138.03,292.9L-118.31,292.56L-108.45,289.24L-98.59,288.57L-88.73,285.91L-78.87,282.92L-69.01,290.24L-59.15,290.57L-49.3,292.23L-39.44,301.54L-29.58,299.21L-19.72,303.87L-9.86,307.19L0,302.54L9.86,301.54L19.72,299.55L29.58,277.94L39.44,258.32L49.3,233.05L69.01,192.83L78.87,177.53L88.73,177.2L98.59,157.59L108.45,151.27L118.31,147.94L138.03,135.31L147.89,135.98L157.75,135.64L167.61,130.99L177.46,110.04L187.32,98.08L197.18,68.49L207.04,57.18L216.9,41.89L226.76,39.56L236.62,13.63L246.48,0.33L256.34,0L266.2,16.29L276.06,15.96L285.92,25.93L295.77,25.27L305.63,51.2L315.49,44.22L325.35,52.86L335.21,60.84L345.07,79.79L354.93,87.44L364.79,91.09L374.65,88.1L384.51,121.68L394.37,164.23L404.23,165.23L414.08,181.19L423.94,188.17L433.8,188.17L443.66,211.78L453.52,228.07L463.38,215.43L473.24,241.7L483.1,243.03L502.82,243.03L512.68,258.32L522.54,276.61L532.39,280.93" style="vector-effect: non-scaling-stroke; fill: none; stroke: rgb(8, 115, 191); stroke-opacity: 1; stroke-width: 0.5px; opacity: 1;"/></g><g class="points"/><g class="text"/></g><g class="trace scatter tracea12900" style="stroke-miterlimit: 2;"><g class="fills"><g><path class="js-fill" d="M630.99,380L532.39,380L532.39,280.93L542.25,287.91L552.11,301.87L561.97,307.86L571.83,309.52L581.69,322.82L591.55,327.47L601.41,329.47L611.27,328.47L621.13,325.48L630.99,326.81" style="fill: rgb(8, 115, 191); fill-opacity: 0.4; stroke-width: 0;"/></g></g><g class="errorbars"/><g class="lines"><path class="js-line" d="M532.39,280.93L542.25,287.91L552.11,301.87L561.97,307.86L571.83,309.52L581.69,322.82L591.55,327.47L601.41,329.47L611.27,328.47L621.13,325.48L630.99,326.81" style="vector-effect: non-scaling-stroke; fill: none; stroke: rgb(8, 115, 191); stroke-opacity: 1; stroke-width: 2px; opacity: 1;"/></g><g class="points"/><g class="text"/></g><g class="trace scatter trace5e0031" style="stroke-miterlimit: 2; opacity: 1;"><g class="fills"/><g class="errorbars"/><g class="lines"/><g class="points"><path class="point" transform="translate(630.99,326.81)" d="M15,0A15,15 0 1,1 0,-15A15,15 0 0,1 15,0Z" style="opacity: 1; stroke-width: 0px; fill: rgb(8, 115, 191); fill-opacity: 1;"/></g><g class="text"/></g></g></g><g class="overplot"/><path class="xlines-above crisp" style="fill: none; stroke-width: 1px; stroke: rgb(0, 0, 0); stroke-opacity: 0;" d=""/><path class="ylines-above crisp" style="fill: none;" d="M0,0"/><g class="overlines-above"/><g class="xaxislayer-above"><path class="xtick ticks crisp" d="M0,450v-5" transform="translate(168.31,0)" style="stroke: rgb(68, 68, 68); stroke-opacity: 1; stroke-width: 1px;"/><path class="xtick ticks crisp" d="M0,450v-5" transform="translate(306.34,0)" style="stroke: rgb(68, 68, 68); stroke-opacity: 1; stroke-width: 1px;"/><path class="xtick ticks crisp" d="M0,450v-5" transform="translate(444.37,0)" style="stroke: rgb(68, 68, 68); stroke-opacity: 1; stroke-width: 1px;"/><path class="xtick ticks crisp" d="M0,450v-5" transform="translate(582.39,0)" style="stroke: rgb(68, 68, 68); stroke-opacity: 1; stroke-width: 1px;"/><path class="xtick ticks crisp" d="M0,450v-5" transform="translate(720.42,0)" style="stroke: rgb(68, 68, 68); stroke-opacity: 1; stroke-width: 1px;"/><g class="xtick"><text text-anchor="middle" x="0" y="469" transform="translate(168.31,0)" style="font-family: 'Open Sans', verdana, arial, sans-serif; font-size: 18px; fill: rgb(42, 63, 95); fill-opacity: 1; white-space: pre;">11/10</text></g><g class="xtick"><text text-anchor="middle" x="0" y="469" transform="translate(306.34,0)" style="font-family: 'Open Sans', verdana, arial, sans-serif; font-size: 18px; fill: rgb(42, 63, 95); fill-opacity: 1; white-space: pre;">25/10</text></g><g class="xtick"><text text-anchor="middle" x="0" y="469" transform="translate(444.37,0)" style="font-family: 'Open Sans', verdana, arial, sans-serif; font-size: 18px; fill: rgb(42, 63, 95); fill-opacity: 1; white-space: pre;">08/11</text></g><g class="xtick"><text text-anchor="middle" x="0" y="469" transform="translate(582.39,0)" style="font-family: 'Open Sans', verdana, arial, sans-serif; font-size: 18px; fill: rgb(42, 63, 95); fill-opacity: 1; white-space: pre;">22/11</text></g><g class="xtick"><text text-anchor="middle" x="0" y="469" transform="translate(720.42,0)" style="font-family: 'Open Sans', verdana, arial, sans-serif; font-size: 18px; fill: rgb(42, 63, 95); fill-opacity: 1; white-space: pre;">06/12</text></g></g><g class="yaxislayer-above"/><g class="overaxes-above"/></g></g><g class="polarlayer"/><g class="ternarylayer"/><g class="geolayer"/><g class="funnelarealayer"/><g class="pielayer"/><g class="treemaplayer"/><g class="sunburstlayer"/><g class="glimages"/><defs id="topdefs-3c5510"><g class="clips"/></defs><g class="layer-above"><g class="imagelayer"/><g class="shapelayer"><path data-index="0" fill-rule="evenodd" d="M-5490.85,406.35L1716.2,406.35" clip-path="url('#clip3c5510xy')" style="opacity: 1; stroke: rgb(255, 0, 0); stroke-opacity: 1; fill: rgb(0, 0, 0); fill-opacity: 0; stroke-dasharray: 3px, 3px; stroke-width: 1.5px;"/></g></g><g class="infolayer"><g class="g-gtitle"><text class="gtitle" x="375" y="25" text-anchor="middle" dy="0.7em" style="font-family: 'Open Sans', verdana, arial, sans-serif; font-size: 50px; fill: rgb(42, 63, 95); opacity: 1; font-weight: normal; white-space: pre;"><tspan style="font-weight:bold">Tarn-et-Garonne (82)</tspan></text></g><g class="g-xtitle"/><g class="annotation" data-index="0" style="opacity: 1;"><g class="annotation-text-g" transform="rotate(0,638.99,336.81)"><g class="cursor-pointer" transform="translate(595, 301)"><rect class="bg" x="0.5" y="0.5" width="86" height="71" style="stroke-width: 1px; stroke: rgb(0, 0, 0); stroke-opacity: 0; fill: rgb(255, 255, 255); fill-opacity: 0.6;"/><text class="annotation-text" text-anchor="middle" x="43.53125" y="55.5" style="font-family: 'Open Sans', verdana, arial, sans-serif; font-size: 50px; fill: rgb(8, 115, 191); fill-opacity: 1; white-space: pre;"> <tspan style="font-weight:bold">60 </tspan></text></g></g><g class="annotation-arrow-g" style="opacity: 1;"><path d="M667.39,372.31L678.99,386.81" style="stroke-width: 1px; stroke: rgb(8, 115, 191); stroke-opacity: 1; stroke-dasharray: 0px, 0px, 18.569px, 18.569px;"/></g></g></g></svg>