<svg class="main-svg" xmlns="http://www.w3.org/2000/svg" xmlns:xlink="http://www.w3.org/1999/xlink" width="1125" height="750" style="" viewBox="0 0 750 500"><rect x="0" y="0" width="750" height="500" style="fill: rgb(0, 0, 0); fill-opacity: 0;"/><defs id="defs-7ae278"><g class="clips"><clipPath id="clip7ae278xyplot" class="plotclip"><rect width="700" height="380"/></clipPath><clipPath class="axesclip" id="clip7ae278x"><rect x="50" y="0" width="700" height="500"/></clipPath><clipPath class="axesclip" id="clip7ae278y"><rect x="0" y="70" width="750" height="380"/></clipPath><clipPath class="axesclip" id="clip7ae278xy"><rect x="50" y="70" width="700" height="380"/></clipPath></g><g class="gradients"/></defs><g class="bglayer"><rect class="bg" x="50" y="70" width="700" height="380" style="fill: rgb(0, 0, 0); fill-opacity: 0; stroke-width: 0;"/></g><g class="layer-below"><g class="imagelayer"/><g class="shapelayer"/></g><g class="cartesianlayer"><g class="subplot xy"><g class="layer-subplot"><g class="shapelayer"/><g class="imagelayer"/></g><g class="gridlayer"><g class="x"><path class="xgrid crisp" transform="translate(107.53,0)" d="M0,70v380" style="stroke: rgb(255, 255, 255); stroke-opacity: 1; stroke-width: 1px;"/><path class="xgrid crisp" transform="translate(174.66,0)" d="M0,70v380" style="stroke: rgb(255, 255, 255); stroke-opacity: 1; stroke-width: 1px;"/><path class="xgrid crisp" transform="translate(241.78,0)" d="M0,70v380" style="stroke: rgb(255, 255, 255); stroke-opacity: 1; stroke-width: 1px;"/><path class="xgrid crisp" transform="translate(308.9,0)" d="M0,70v380" style="stroke: rgb(255, 255, 255); stroke-opacity: 1; stroke-width: 1px;"/><path class="xgrid crisp" transform="translate(376.03,0)" d="M0,70v380" style="stroke: rgb(255, 255, 255); stroke-opacity: 1; stroke-width: 1px;"/><path class="xgrid crisp" transform="translate(443.15,0)" d="M0,70v380" style="stroke: rgb(255, 255, 255); stroke-opacity: 1; stroke-width: 1px;"/><path class="xgrid crisp" transform="translate(510.27,0)" d="M0,70v380" style="stroke: rgb(255, 255, 255); stroke-opacity: 1; stroke-width: 1px;"/><path class="xgrid crisp" transform="translate(577.4,0)" d="M0,70v380" style="stroke: rgb(255, 255, 255); stroke-opacity: 1; stroke-width: 1px;"/><path class="xgrid crisp" transform="translate(644.52,0)" d="M0,70v380" style="stroke: rgb(255, 255, 255); stroke-opacity: 1; stroke-width: 1px;"/><path class="xgrid crisp" transform="translate(711.64,0)" d="M0,70v380" style="stroke: rgb(255, 255, 255); stroke-opacity: 1; stroke-width: 1px;"/></g><g class="y"/></g><g class="zerolinelayer"/><path class="xlines-below"/><path class="ylines-below"/><g class="overlines-below"/><g class="xaxislayer-below"/><g class="yaxislayer-below"/><g class="overaxes-below"/><g class="plot" transform="translate(50, 70)" clip-path="url('#clip7ae278xyplot')"><g class="scatterlayer mlayer"><g class="trace scatter trace00376b" style="stroke-miterlimit: 2;"><g class="fills"><g><path class="js-fill" d="M618.49,380L-652.05,380L-652.05,380L-326.03,376.08L-321.23,375.49L-311.64,373.92L-306.85,372.55L-287.67,373.92L-282.88,373.92L-268.49,376.67L-263.7,376.27L-220.55,370L-215.75,367.45L-172.6,359.61L-167.81,353.33L-158.22,352.35L-153.42,344.9L-143.84,336.08L-139.04,326.86L-134.25,316.27L-129.45,314.31L-124.66,314.12L-119.86,305.29L-115.07,301.96L-110.27,295.69L-105.48,298.82L-100.68,298.63L-95.89,295.1L-91.1,294.71L-86.3,300.39L-81.51,291.37L-76.71,293.33L-71.92,286.47L-62.33,291.37L-57.53,291.76L-52.74,283.92L-47.95,294.12L-43.15,293.92L-38.36,297.65L-28.77,300.59L-23.97,300L-19.18,311.96L-14.38,314.9L-4.79,316.67L0,312.94L4.79,309.22L9.59,309.8L19.18,281.76L23.97,261.57L33.56,224.71L38.36,211.18L43.15,211.18L47.95,190.98L52.74,169.61L57.53,161.37L62.33,143.33L67.12,138.24L71.92,138.43L76.71,137.45L81.51,130.2L86.3,112.16L95.89,61.57L100.68,42.94L105.48,37.65L110.27,34.31L115.07,6.08L119.86,0L124.66,2.35L129.45,17.45L139.04,31.57L143.84,31.57L148.63,56.47L153.42,75.88L158.22,88.82L163.01,104.9L167.81,109.8L172.6,110.98L177.4,114.9L182.19,125.29L186.99,151.76L191.78,199.02L196.58,216.47L201.37,244.31L206.16,255.1L210.96,254.71L215.75,276.08L220.55,288.43L225.34,281.76L230.14,298.43L234.93,308.04L239.73,313.14L244.52,314.51L249.32,329.61L254.11,335.29L258.9,339.61L263.7,339.61L268.49,344.71L278.08,345.1L282.88,339.22L287.67,334.12L292.47,332.55L306.85,333.33L311.64,333.33L316.44,340.59L321.23,345.1L326.03,344.9L330.82,343.73L335.62,341.57L340.41,341.37L345.21,340.98L350,336.86L354.79,335.88L359.59,332.16L369.18,328.24L373.97,324.31L378.77,323.92L383.56,315.49L388.36,308.43L393.15,305.49L397.95,302.35L402.74,310.98L412.33,310.98L417.12,310.2L426.71,297.84L431.51,289.8L436.3,289.41L441.1,281.76L445.89,280.2L450.68,263.92L455.48,253.14L460.27,245.69L465.07,244.9L469.86,218.24L479.45,217.06L484.25,214.71L489.04,206.67L493.84,203.33L508.22,169.22L513.01,170.39L517.81,155.1L522.6,145.49L527.4,133.73L532.19,129.02L541.78,119.02L546.58,118.63L551.37,114.12L556.16,111.57L565.75,112.35L570.55,119.61L575.34,125.69L580.14,124.51L589.73,158.24L594.52,171.57L599.32,177.06L604.11,187.45L608.9,196.08L613.7,197.65L618.49,218.43" style="fill: rgb(8, 115, 191); fill-opacity: 0.2; stroke-width: 0;"/></g></g><g class="errorbars"/><g class="lines"><path class="js-line" d="M-652.05,380L-326.03,376.08L-321.23,375.49L-311.64,373.92L-306.85,372.55L-287.67,373.92L-282.88,373.92L-268.49,376.67L-263.7,376.27L-220.55,370L-215.75,367.45L-172.6,359.61L-167.81,353.33L-158.22,352.35L-153.42,344.9L-143.84,336.08L-139.04,326.86L-134.25,316.27L-129.45,314.31L-124.66,314.12L-119.86,305.29L-115.07,301.96L-110.27,295.69L-105.48,298.82L-100.68,298.63L-95.89,295.1L-91.1,294.71L-86.3,300.39L-81.51,291.37L-76.71,293.33L-71.92,286.47L-62.33,291.37L-57.53,291.76L-52.74,283.92L-47.95,294.12L-43.15,293.92L-38.36,297.65L-28.77,300.59L-23.97,300L-19.18,311.96L-14.38,314.9L-4.79,316.67L0,312.94L4.79,309.22L9.59,309.8L19.18,281.76L23.97,261.57L33.56,224.71L38.36,211.18L43.15,211.18L47.95,190.98L52.74,169.61L57.53,161.37L62.33,143.33L67.12,138.24L71.92,138.43L76.71,137.45L81.51,130.2L86.3,112.16L95.89,61.57L100.68,42.94L105.48,37.65L110.27,34.31L115.07,6.08L119.86,0L124.66,2.35L129.45,17.45L139.04,31.57L143.84,31.57L148.63,56.47L153.42,75.88L158.22,88.82L163.01,104.9L167.81,109.8L172.6,110.98L177.4,114.9L182.19,125.29L186.99,151.76L191.78,199.02L196.58,216.47L201.37,244.31L206.16,255.1L210.96,254.71L215.75,276.08L220.55,288.43L225.34,281.76L230.14,298.43L234.93,308.04L239.73,313.14L244.52,314.51L249.32,329.61L254.11,335.29L258.9,339.61L263.7,339.61L268.49,344.71L278.08,345.1L282.88,339.22L287.67,334.12L292.47,332.55L306.85,333.33L311.64,333.33L316.44,340.59L321.23,345.1L326.03,344.9L330.82,343.73L335.62,341.57L340.41,341.37L345.21,340.98L350,336.86L354.79,335.88L359.59,332.16L369.18,328.24L373.97,324.31L378.77,323.92L383.56,315.49L388.36,308.43L393.15,305.49L397.95,302.35L402.74,310.98L412.33,310.98L417.12,310.2L426.71,297.84L431.51,289.8L436.3,289.41L441.1,281.76L445.89,280.2L450.68,263.92L455.48,253.14L460.27,245.69L465.07,244.9L469.86,218.24L479.45,217.06L484.25,214.71L489.04,206.67L493.84,203.33L508.22,169.22L513.01,170.39L517.81,155.1L522.6,145.49L527.4,133.73L532.19,129.02L541.78,119.02L546.58,118.63L551.37,114.12L556.16,111.57L565.75,112.35L570.55,119.61L575.34,125.69L580.14,124.51L589.73,158.24L594.52,171.57L599.32,177.06L604.11,187.45L608.9,196.08L613.7,197.65L618.49,218.43" style="vector-effect: non-scaling-stroke; fill: none; stroke: rgb(8, 115, 191); stroke-opacity: 1; stroke-width: 0.5px; opacity: 1;"/></g><g class="points"/><g class="text"/></g><g class="trace scatter tracee3fe76" style="stroke-miterlimit: 2;"><g class="fills"><g><path class="js-fill" d="M666.44,380L618.49,380L618.49,218.43L623.29,235.69L628.08,246.67L632.88,264.51L637.67,276.47L642.47,283.33L647.26,283.73L656.85,289.02L661.64,296.47L666.44,298.43" style="fill: rgb(8, 115, 191); fill-opacity: 0.4; stroke-width: 0;"/></g></g><g class="errorbars"/><g class="lines"><path class="js-line" d="M618.49,218.43L623.29,235.69L628.08,246.67L632.88,264.51L637.67,276.47L642.47,283.33L647.26,283.73L656.85,289.02L661.64,296.47L666.44,298.43" style="vector-effect: non-scaling-stroke; fill: none; stroke: rgb(8, 115, 191); stroke-opacity: 1; stroke-width: 2px; opacity: 1;"/></g><g class="points"/><g class="text"/></g><g class="trace scatter tracef3e3b2" style="stroke-miterlimit: 2; opacity: 1;"><g class="fills"/><g class="errorbars"/><g class="lines"/><g class="points"><path class="point" transform="translate(666.44,298.43)" d="M15,0A15,15 0 1,1 0,-15A15,15 0 0,1 15,0Z" style="opacity: 1; stroke-width: 0px; fill: rgb(8, 115, 191); fill-opacity: 1;"/></g><g class="text"/></g></g></g><g class="overplot"/><path class="xlines-above crisp" style="fill: none; stroke-width: 1px; stroke: rgb(0, 0, 0); stroke-opacity: 0;" d=""/><path class="ylines-above crisp" style="fill: none;" d="M0,0"/><g class="overlines-above"/><g class="xaxislayer-above"><path class="xtick ticks crisp" d="M0,450v-5" transform="translate(107.53,0)" style="stroke: rgb(68, 68, 68); stroke-opacity: 1; stroke-width: 1px;"/><path class="xtick ticks crisp" d="M0,450v-5" transform="translate(174.66,0)" style="stroke: rgb(68, 68, 68); stroke-opacity: 1; stroke-width: 1px;"/><path class="xtick ticks crisp" d="M0,450v-5" transform="translate(241.78,0)" style="stroke: rgb(68, 68, 68); stroke-opacity: 1; stroke-width: 1px;"/><path class="xtick ticks crisp" d="M0,450v-5" transform="translate(308.9,0)" style="stroke: rgb(68, 68, 68); stroke-opacity: 1; stroke-width: 1px;"/><path class="xtick ticks crisp" d="M0,450v-5" transform="translate(376.03,0)" style="stroke: rgb(68, 68, 68); stroke-opacity: 1; stroke-width: 1px;"/><path class="xtick ticks crisp" d="M0,450v-5" transform="translate(443.15,0)" style="stroke: rgb(68, 68, 68); stroke-opacity: 1; stroke-width: 1px;"/><path class="xtick ticks crisp" d="M0,450v-5" transform="translate(510.27,0)" style="stroke: rgb(68, 68, 68); stroke-opacity: 1; stroke-width: 1px;"/><path class="xtick ticks crisp" d="M0,450v-5" transform="translate(577.4,0)" style="stroke: rgb(68, 68, 68); stroke-opacity: 1; stroke-width: 1px;"/><path class="xtick ticks crisp" d="M0,450v-5" transform="translate(644.52,0)" style="stroke: rgb(68, 68, 68); stroke-opacity: 1; stroke-width: 1px;"/><path class="xtick ticks crisp" d="M0,450v-5" transform="translate(711.64,0)" style="stroke: rgb(68, 68, 68); stroke-opacity: 1; stroke-width: 1px;"/><g class="xtick"><text text-anchor="middle" x="0" y="469" transform="translate(107.53,0)" style="font-family: 'Open Sans', verdana, arial, sans-serif; font-size: 18px; fill: rgb(42, 63, 95); fill-opacity: 1; white-space: pre;">11/10</text></g><g class="xtick"><text text-anchor="middle" x="0" y="469" transform="translate(174.66,0)" style="font-family: 'Open Sans', verdana, arial, sans-serif; font-size: 18px; fill: rgb(42, 63, 95); fill-opacity: 1; white-space: pre;">25/10</text></g><g class="xtick"><text text-anchor="middle" x="0" y="469" transform="translate(241.78,0)" style="font-family: 'Open Sans', verdana, arial, sans-serif; font-size: 18px; fill: rgb(42, 63, 95); fill-opacity: 1; white-space: pre;">08/11</text></g><g class="xtick"><text text-anchor="middle" x="0" y="469" transform="translate(308.9,0)" style="font-family: 'Open Sans', verdana, arial, sans-serif; font-size: 18px; fill: rgb(42, 63, 95); fill-opacity: 1; white-space: pre;">22/11</text></g><g class="xtick"><text text-anchor="middle" x="0" y="469" transform="translate(376.03,0)" style="font-family: 'Open Sans', verdana, arial, sans-serif; font-size: 18px; fill: rgb(42, 63, 95); fill-opacity: 1; white-space: pre;">06/12</text></g><g class="xtick"><text text-anchor="middle" x="0" y="469" transform="translate(443.15,0)" style="font-family: 'Open Sans', verdana, arial, sans-serif; font-size: 18px; fill: rgb(42, 63, 95); fill-opacity: 1; white-space: pre;">20/12</text></g><g class="xtick"><text text-anchor="middle" x="0" y="469" transform="translate(510.27,0)" style="font-family: 'Open Sans', verdana, arial, sans-serif; font-size: 18px; fill: rgb(42, 63, 95); fill-opacity: 1; white-space: pre;">03/01</text></g><g class="xtick"><text text-anchor="middle" x="0" y="469" transform="translate(577.4,0)" style="font-family: 'Open Sans', verdana, arial, sans-serif; font-size: 18px; fill: rgb(42, 63, 95); fill-opacity: 1; white-space: pre;">17/01</text></g><g class="xtick"><text text-anchor="middle" x="0" y="469" transform="translate(644.52,0)" style="font-family: 'Open Sans', verdana, arial, sans-serif; font-size: 18px; fill: rgb(42, 63, 95); fill-opacity: 1; white-space: pre;">31/01</text></g><g class="xtick"><text text-anchor="middle" x="0" y="469" transform="translate(711.64,0)" style="font-family: 'Open Sans', verdana, arial, sans-serif; font-size: 18px; fill: rgb(42, 63, 95); fill-opacity: 1; white-space: pre;">14/02</text></g></g><g class="yaxislayer-above"/><g class="overaxes-above"/></g></g><g class="polarlayer"/><g class="ternarylayer"/><g class="geolayer"/><g class="funnelarealayer"/><g class="pielayer"/><g class="treemaplayer"/><g class="sunburstlayer"/><g class="glimages"/><defs id="topdefs-7ae278"><g class="clips"/></defs><g class="layer-above"><g class="imagelayer"/><g class="shapelayer"><path data-index="0" fill-rule="evenodd" d="M-2644.52,403.04L860.27,403.04" clip-path="url('#clip7ae278xy')" style="opacity: 1; stroke: rgb(255, 0, 0); stroke-opacity: 1; fill: rgb(0, 0, 0); fill-opacity: 0; stroke-dasharray: 3px, 3px; stroke-width: 1.5px;"/></g></g><g class="infolayer"><g class="g-gtitle"><text class="gtitle" x="375" y="25" text-anchor="middle" dy="0.7em" style="font-family: 'Open Sans', verdana, arial, sans-serif; font-size: 50px; fill: rgb(42, 63, 95); opacity: 1; font-weight: normal; white-space: pre;"><tspan style="font-weight:bold">Pyrénées-Orientales (66)</tspan></text></g><g class="g-xtitle"/><g class="annotation" data-index="0" style="opacity: 1;"><g class="annotation-text-g" transform="rotate(0,674.44,308.43)"><g class="cursor-pointer" transform="translate(631, 272)"><rect class="bg" x="0.5" y="0.5" width="86" height="71" style="stroke-width: 1px; stroke: rgb(0, 0, 0); stroke-opacity: 0; fill: rgb(255, 255, 255); fill-opacity: 0.6;"/><text class="annotation-text" text-anchor="middle" x="43.53125" y="55.5" style="font-family: 'Open Sans', verdana, arial, sans-serif; font-size: 50px; fill: rgb(8, 115, 191); fill-opacity: 1; white-space: pre;"> <tspan style="font-weight:bold">86 </tspan></text></g></g><g class="annotation-arrow-g" style="opacity: 1;"><path d="M702.84,343.93L714.44,358.43" style="stroke-width: 1px; stroke: rgb(8, 115, 191); stroke-opacity: 1; stroke-dasharray: 0px, 0px, 18.569px, 18.569px;"/></g></g></g></svg>